<?xml version="1.0" encoding="UTF-8"?>
<svg id="ae_recolor" xmlns="http://www.w3.org/2000/svg" xmlns:xlink="http://www.w3.org/1999/xlink" viewBox="0 0 48 40">
  <defs>
    <style>
      .cls-1 {
        fill-rule: evenodd;
      }

      .cls-2 {
        fill: #519e6e;
      }

      .cls-3 {
        fill: #a33535;
      }
    </style>
    <filter id="drop-shadow-1" x="137.92" y="476.58" width="46" height="33" filterUnits="userSpaceOnUse">
      <feOffset dx="0" dy="2.13"/>
      <feGaussianBlur result="blur" stdDeviation="1.06"/>
      <feFlood flood-color="#000" flood-opacity="1"/>
      <feComposite in2="blur" operator="in"/>
      <feComposite in="SourceGraphic"/>
    </filter>
  </defs>
  <g>
    <polyline class="cls-1" points="5.68 4 5.68 23.78 20.74 16.24 5.68 4"/>
    <rect x="11.1" y="11.4" width="2.65" height="15.24" transform="translate(-6.9 7.07) rotate(-25.13)"/>
  </g>
  <g>
    <path class="cls-2" d="M35.4,18.52c-4.19.32-5.4,5.27-6.96,5.65s-1.94-.38-4.61-.38c-2.13,0-3.69,1.72-3.59,4.35.1,2.89,3.11,6.74,10.17,6.74,8.13,0,11.06-6.39,10.77-10.67-.24-3.61-2.87-5.91-5.78-5.69Z"/>
    <path class="cls-3" d="M35.78,19.8c.92,0,1.79.32,2.49.94.95.82,1.53,2.09,1.63,3.56.12,1.72-.43,4.47-2.36,6.53-1.7,1.81-4.16,2.77-7.12,2.77-6.37,0-8.8-3.28-8.88-5.49-.04-1,.23-1.85.75-2.39.4-.41.93-.63,1.55-.63,1.13,0,1.79.15,2.37.28.46.11.9.2,1.44.2.36,0,.72-.05,1.1-.14l.27-.07.25-.13c.71-.36,1.16-.97,1.95-2.11,1.26-1.8,2.37-3.18,4.27-3.32.09,0,.19-.01.28-.01M35.78,17.38c-.15,0-.3,0-.46.02-3.2.24-4.93,2.71-6.07,4.35-.37.52-.87,1.24-1.06,1.34-.2.05-.37.07-.53.07-.27,0-.52-.06-.91-.14-.63-.14-1.5-.34-2.9-.34-1.27,0-2.44.49-3.29,1.37-.98,1.01-1.48,2.49-1.42,4.15.11,3.14,3.21,7.82,11.29,7.82,3.65,0,6.72-1.22,8.88-3.53,2.45-2.62,3.16-6.02,3-8.34-.14-2.12-1.01-3.97-2.45-5.22-1.15-1-2.58-1.53-4.08-1.53h0Z"/>
  </g>
</svg>