<?xml version="1.0" encoding="UTF-8"?>
<svg id="ae_shape_picker" xmlns="http://www.w3.org/2000/svg" xmlns:xlink="http://www.w3.org/1999/xlink" viewBox="0 0 48 40">
  <defs>
    <style>
      .cls-1 {
        fill: #ffc536;
      }

      .cls-2 {
        fill: #fff;
      }
    </style>
    <filter id="drop-shadow-1" x="-203.19" y="476.58" width="46" height="33" filterUnits="userSpaceOnUse">
      <feOffset dx="0" dy="2.13"/>
      <feGaussianBlur result="blur" stdDeviation="1.06"/>
      <feFlood flood-color="#000" flood-opacity="1"/>
      <feComposite in2="blur" operator="in"/>
      <feComposite in="SourceGraphic"/>
    </filter>
  </defs>
  <g>
    <path class="cls-2" d="M23.06,21.14H6.22V4h16.84v17.14ZM7.63,19.73h14.02V5.41H7.63v14.31Z"/>
    <path class="cls-2" d="M30.12,28.57H13.28v-8.84h8.37v-8.3h8.48v17.14ZM14.69,27.16h14.02v-14.31h-5.65v8.3h-8.37v6.02Z"/>
    <path class="cls-2" d="M37.19,36h-16.84v-8.84h8.37v-8.3h8.48v17.14ZM21.76,34.59h14.02v-14.31h-5.65v8.3h-8.37v6.02Z"/>
  </g>
  <g>
    <polygon class="cls-1" points="29.01 25.65 29.17 8.33 34.64 12.69 41.78 13.96 29.01 25.65"/>
    <rect class="cls-1" x="27.14" y="11.92" width="15.01" height="2.17" transform="translate(8.66 39.35) rotate(-65.98)"/>
  </g>
</svg>