<?xml version="1.0" encoding="UTF-8"?>
<svg id="ae_transform_points" xmlns="http://www.w3.org/2000/svg" xmlns:xlink="http://www.w3.org/1999/xlink" viewBox="0 0 48 40">
  <defs>
    <style>
      .cls-1 {
        fill: #ff5858;
      }
    </style>
    <filter id="drop-shadow-1" x="-134.97" y="476.58" width="46" height="33" filterUnits="userSpaceOnUse">
      <feOffset dx="0" dy="2.13"/>
      <feGaussianBlur result="blur" stdDeviation="1.06"/>
      <feFlood flood-color="#000" flood-opacity="1"/>
      <feComposite in2="blur" operator="in"/>
      <feComposite in="SourceGraphic"/>
    </filter>
  </defs>
  <g>
    <rect class="cls-1" x="12.16" y="18.38" width="23.67" height="2.12"/>
    <g>
      <polygon class="cls-1" points="8.32 19.44 12.44 22.58 12.44 16.3 8.32 19.44"/>
      <path class="cls-1" d="M12.97,23.65l-5.52-4.21,5.52-4.21v8.42ZM9.19,19.44l2.71,2.07v-4.14l-2.71,2.07Z"/>
    </g>
    <g>
      <polygon class="cls-1" points="39.68 19.44 35.56 22.58 35.56 16.3 39.68 19.44"/>
      <path class="cls-1" d="M35.03,23.65v-8.42l5.52,4.21-5.52,4.21ZM36.09,17.38v4.14l2.71-2.07-2.71-2.07Z"/>
    </g>
  </g>
  <g>
    <rect class="cls-1" x="22.94" y="8.16" width="2.12" height="23.67"/>
    <g>
      <polygon class="cls-1" points="24 4.87 20.86 8.99 27.14 8.99 24 4.87"/>
      <path class="cls-1" d="M28.21,9.52h-8.42l4.21-5.52,4.21,5.52ZM21.93,8.46h4.14l-2.07-2.71-2.07,2.71Z"/>
    </g>
    <g>
      <polygon class="cls-1" points="24 35.13 20.86 31.01 27.14 31.01 24 35.13"/>
      <path class="cls-1" d="M24,36l-4.21-5.52h8.42l-4.21,5.52ZM21.93,31.54l2.07,2.71,2.07-2.71h-4.14Z"/>
    </g>
  </g>
</svg>