<?xml version="1.0" encoding="UTF-8"?>
<svg id="ae_transform_bone" xmlns="http://www.w3.org/2000/svg" xmlns:xlink="http://www.w3.org/1999/xlink" viewBox="0 0 48 40">
  <defs>
    <style>
      .cls-1 {
        fill: #fff;
      }

      .cls-2 {
        fill: #fc4444;
      }
    </style>
    <filter id="drop-shadow-1" x="1.47" y="476.58" width="46" height="33" filterUnits="userSpaceOnUse">
      <feOffset dx="0" dy="2.13"/>
      <feGaussianBlur result="blur" stdDeviation="1.06"/>
      <feFlood flood-color="#000" flood-opacity="1"/>
      <feComposite in2="blur" operator="in"/>
      <feComposite in="SourceGraphic"/>
    </filter>
  </defs>
  <g>
    <path class="cls-2" d="M23.23,36c-3.81,0-6.69-2.43-7.34-6.19-.39-2.25.23-4.55,1.7-6.3,1.39-1.65,3.33-2.56,5.46-2.56,3.19,0,5.41,2.07,5.66,2.31l.79.77-1.53,1.58-.79-.77c-.07-.07-1.77-1.69-4.13-1.69-1.47,0-2.82.63-3.78,1.78-1.04,1.23-1.49,2.92-1.22,4.51.47,2.73,2.41,4.36,5.17,4.36,3.07,0,4.79-1.93,5.1-2.32l.69-.85,1.71,1.38-.69.85c-.6.73-2.85,3.13-6.81,3.13Z"/>
    <polygon class="cls-2" points="31.12 26.96 30.5 20.39 24.55 26.34 31.12 26.96"/>
  </g>
  <path class="cls-1" d="M36.12,20.39c-3.46,0-5.04-3.02-5.57-4.35h-13.09c-.53,1.32-2.11,4.35-5.57,4.35h0c-1.82,0-3.38-.83-4.29-2.26-.86-1.36-.99-3.05-.35-4.41.32-.67.78-1.17,1.22-1.53-.44-.36-.9-.85-1.22-1.53-.64-1.36-.51-3.05.35-4.41.91-1.43,2.47-2.26,4.29-2.26h0c3.46,0,5.04,3.02,5.57,4.35h13.09c.53-1.32,2.11-4.35,5.57-4.35h0c1.82,0,3.38.83,4.29,2.26.86,1.36.99,3.05.35,4.41-.32.67-.78,1.17-1.22,1.53.44.36.9.85,1.22,1.53.64,1.36.51,3.05-.35,4.41-.91,1.43-2.47,2.26-4.29,2.26h0ZM23.28,14.39h8.48l.17.6c.04.15,1.12,3.75,4.19,3.75h0c1.7,0,2.54-.94,2.9-1.49.55-.87.65-1.98.25-2.82-.49-1.03-1.55-1.43-1.62-1.45-.24-.08-.45-.27-.53-.53-.14-.43.1-.9.53-1.04,0,0,1.11-.39,1.61-1.45.4-.84.3-1.95-.25-2.82-.35-.56-1.19-1.49-2.9-1.49h0c-3.08,0-4.15,3.6-4.19,3.75l-.17.6h-15.5s-.17-.6-.17-.6c-.04-.15-1.12-3.75-4.19-3.75h0c-1.7,0-2.54.94-2.9,1.49-.55.87-.65,1.98-.25,2.82.49,1.03,1.55,1.43,1.62,1.45.24.08.45.27.53.53.14.43-.1.9-.53,1.04,0,0-1.11.39-1.61,1.45-.4.84-.3,1.95.25,2.82.35.56,1.19,1.49,2.9,1.49h0c3.08,0,4.15-3.6,4.19-3.75l.17-.6h7.03Z"/>
</svg>