<?xml version="1.0" encoding="UTF-8"?>
<svg id="am_create_limb_2" xmlns="http://www.w3.org/2000/svg" xmlns:xlink="http://www.w3.org/1999/xlink" viewBox="0 0 48 40">
  <defs>
    <style>
      .cls-1 {
        fill: #e6892e;
      }

      .cls-2 {
        fill: #fff;
      }
    </style>
    <filter id="drop-shadow-1" x="206.14" y="409.34" width="46" height="33" filterUnits="userSpaceOnUse">
      <feOffset dx="0" dy="2.13"/>
      <feGaussianBlur result="blur" stdDeviation="1.06"/>
      <feFlood flood-color="#000" flood-opacity="1"/>
      <feComposite in2="blur" operator="in"/>
      <feComposite in="SourceGraphic"/>
    </filter>
  </defs>
  <g>
    <path class="cls-1" d="M16.72,9.51l7.51,7.9,8.47-8.41,9.42,9.14-11.29,11.52c-3.49,3.56-9.22,3.56-12.7,0l-10.64-10.88c-2.48-2.54-2.49-6.59-.01-9.13h0c2.52-2.59,6.65-2.65,9.24-.13Z"/>
    <path d="M24.49,32.95h0c-2.58,0-4.99-1.02-6.79-2.86l-10.64-10.88c-2.74-2.8-2.74-7.19-.01-9.99,2.75-2.82,7.29-2.89,10.11-.15l.02.02,7.08,7.45,8.45-8.4,10.3,9.99-11.72,11.96c-1.8,1.84-4.21,2.85-6.79,2.85ZM12.17,8.29c-1.54,0-3.09.6-4.25,1.79-2.26,2.32-2.25,5.96.01,8.27l10.64,10.88c1.57,1.6,3.67,2.49,5.91,2.49h0c2.24,0,4.34-.88,5.91-2.48l10.85-11.08-8.54-8.29-8.49,8.43-7.94-8.35c-1.15-1.11-2.63-1.66-4.11-1.66Z"/>
  </g>
  <g>
    <line class="cls-2" x1="20.98" y1="20.64" x2="24.24" y2="17.41"/>
    <rect x="20.31" y="18.41" width="4.58" height="1.23" transform="translate(-6.85 21.39) rotate(-44.66)"/>
  </g>
</svg>