<?xml version="1.0" encoding="UTF-8"?>
<svg id="am_select_bonelayer" xmlns="http://www.w3.org/2000/svg" xmlns:xlink="http://www.w3.org/1999/xlink" viewBox="0 0 48 40">
  <defs>
    <style>
      .cls-1 {
        fill: #1d1b1b;
      }

      .cls-2 {
        fill: #ababab;
      }
    </style>
    <filter id="drop-shadow-1" x="342.58" y="409.34" width="46" height="33" filterUnits="userSpaceOnUse">
      <feOffset dx="0" dy="2.13"/>
      <feGaussianBlur result="blur" stdDeviation="1.06"/>
      <feFlood flood-color="#000" flood-opacity="1"/>
      <feComposite in2="blur" operator="in"/>
      <feComposite in="SourceGraphic"/>
    </filter>
  </defs>
  <rect class="cls-1" x="5.25" y="4.01" width="38.39" height="31.96"/>
  <g>
    <path class="cls-2" d="M34.69,26.92c-2.92,0-4.26-2.56-4.71-3.67h-11.07c-.45,1.12-1.79,3.67-4.71,3.67h0c-1.54,0-2.86-.7-3.62-1.91-.73-1.15-.84-2.58-.29-3.73.27-.57.66-.99,1.03-1.29-.37-.3-.76-.72-1.03-1.29-.55-1.15-.43-2.58.29-3.73.77-1.21,2.09-1.91,3.62-1.91h0c2.92,0,4.26,2.56,4.71,3.67h11.07c.45-1.12,1.79-3.67,4.71-3.67h0c1.54,0,2.86.7,3.62,1.91.73,1.15.84,2.58.29,3.73-.27.57-.66.99-1.03,1.29.37.3.76.72,1.03,1.29.55,1.15.43,2.58-.29,3.73-.77,1.21-2.09,1.91-3.62,1.91h0ZM23.83,21.85h7.16l.14.51c.04.13.95,3.17,3.54,3.17h0c1.44,0,2.15-.79,2.45-1.26.47-.74.55-1.67.21-2.38-.42-.87-1.31-1.2-1.37-1.22-.21-.07-.38-.23-.45-.45-.12-.37.08-.76.45-.88,0,0,.94-.33,1.36-1.22.34-.71.25-1.65-.21-2.38-.3-.47-1.01-1.26-2.45-1.26h0c-2.6,0-3.51,3.04-3.55,3.17l-.15.5h-13.1s-.14-.5-.14-.5c-.04-.13-.95-3.17-3.54-3.17h0c-1.44,0-2.15.79-2.45,1.26-.47.74-.55,1.67-.21,2.38.42.87,1.31,1.2,1.37,1.22.21.07.38.23.45.45.12.37-.08.76-.45.88,0,0-.94.33-1.36,1.22-.34.71-.25,1.65.21,2.38.3.47,1.01,1.26,2.45,1.26h0c2.6,0,3.51-3.04,3.55-3.17l.15-.5h5.94Z"/>
    <path class="cls-2" d="M34.69,27.55h0c-2.99,0-4.5-2.32-5.12-3.67h-10.23c-.62,1.35-2.13,3.67-5.12,3.67-1.77,0-3.28-.81-4.17-2.21-.84-1.33-.97-2.99-.33-4.34.18-.37.4-.71.68-1.02-.28-.31-.5-.65-.68-1.02-.64-1.34-.51-3.01.33-4.34.88-1.4,2.4-2.2,4.16-2.21,2.99,0,4.5,2.32,5.13,3.67h10.23c.62-1.35,2.13-3.67,5.12-3.67,1.77,0,3.28.81,4.17,2.21.84,1.33.97,2.99.33,4.34-.18.37-.4.71-.68,1.02.28.31.5.65.68,1.02.64,1.34.51,3.01-.33,4.34-.88,1.4-2.4,2.2-4.16,2.21ZM18.48,22.61h11.93l.16.4c.39.98,1.58,3.27,4.12,3.27h0c1.31,0,2.44-.59,3.09-1.61.61-.97.71-2.16.26-3.11-.19-.41-.48-.77-.85-1.07l-.61-.49.61-.5c.37-.3.66-.66.85-1.07.45-.95.35-2.15-.26-3.11-.65-1.02-1.77-1.61-3.09-1.61-2.54,0-3.73,2.29-4.12,3.27l-.16.4h-11.93l-.16-.4c-.39-.98-1.58-3.27-4.12-3.27-1.32,0-2.44.59-3.09,1.61-.61.97-.71,2.16-.26,3.11.19.41.48.77.85,1.07l.61.5-.61.49c-.37.3-.66.66-.85,1.07-.45.95-.35,2.15.26,3.11.65,1.02,1.77,1.61,3.09,1.61,2.54,0,3.73-2.29,4.12-3.27l.16-.4ZM34.69,26.16c-3.09,0-4.12-3.48-4.16-3.63v-.04s-12.16,0-12.16,0v.04c-.05.15-1.09,3.63-4.17,3.63-1.74,0-2.62-.98-2.99-1.56-.58-.92-.68-2.1-.25-3,.52-1.1,1.63-1.54,1.82-1.58-.04,0-.03-.03-.04-.06-.18-.09-1.26-.49-1.78-1.6-.43-.9-.33-2.08.25-3,.37-.58,1.25-1.56,2.98-1.56,3.09,0,4.12,3.48,4.16,3.63v.04s12.16,0,12.16,0v-.04c.05-.15,1.09-3.63,4.17-3.63,1.74,0,2.62.98,2.99,1.56.58.92.68,2.1.25,3-.52,1.1-1.6,1.51-1.73,1.55-.05.01-.07.05-.06.08.18.09,1.26.49,1.78,1.6.43.9.33,2.08-.25,3-.37.58-1.25,1.56-2.98,1.56ZM23.83,21.22h7.64l.27.97s.79,2.7,2.93,2.7c1.08,0,1.63-.53,1.91-.97.35-.55.42-1.26.18-1.77-.3-.64-1-.9-1-.9-.39-.13-.71-.45-.84-.85-.11-.34-.08-.7.08-1.02.16-.32.44-.55.78-.66h0s.68-.26.99-.89c.24-.51.17-1.22-.18-1.77-.28-.44-.84-.96-1.91-.96-2.14,0-2.91,2.6-2.94,2.71l-.28.96h-14.06s-.27-.97-.27-.97c0-.03-.79-2.7-2.93-2.7-1.08,0-1.63.53-1.91.97-.35.55-.42,1.26-.18,1.77.3.64,1,.9,1,.9.39.13.71.45.84.85.22.7-.16,1.45-.86,1.68h0s-.68.26-.99.89c-.24.51-.17,1.22.18,1.77.28.44.84.96,1.91.96,2.14,0,2.91-2.6,2.94-2.71l.28-.96h6.42Z"/>
  </g>
  <g>
    <g>
      <rect class="cls-2" x="5.25" y="3.99" width="1.59" height="3.21"/>
      <rect class="cls-2" x="7.33" y="2.87" width="1.59" height="3.84" transform="translate(3.34 12.92) rotate(-90)"/>
      <rect class="cls-2" x="17.25" y="1.59" width="1.59" height="6.41" transform="translate(13.25 22.83) rotate(-90)"/>
      <rect class="cls-2" x="28.45" y="1.59" width="1.59" height="6.41" transform="translate(24.45 34.03) rotate(-90)"/>
      <rect class="cls-2" x="39.65" y="1.59" width="1.59" height="6.41" transform="translate(35.65 45.23) rotate(-90)"/>
      <g>
        <rect class="cls-2" x="5.25" y="23.26" width="1.59" height="6.41" transform="translate(12.08 52.93) rotate(180)"/>
        <rect class="cls-2" x="5.25" y="12.06" width="1.59" height="6.41" transform="translate(12.08 30.53) rotate(180)"/>
      </g>
    </g>
    <g>
      <rect class="cls-2" x="42.06" y="32.78" width="1.59" height="3.21" transform="translate(85.7 68.78) rotate(180)"/>
      <rect class="cls-2" x="39.97" y="33.28" width="1.59" height="3.84" transform="translate(75.96 -5.57) rotate(90)"/>
      <rect class="cls-2" x="30.05" y="31.99" width="1.59" height="6.41" transform="translate(66.05 4.35) rotate(90)"/>
      <rect class="cls-2" x="18.85" y="31.99" width="1.59" height="6.41" transform="translate(54.85 15.55) rotate(90)"/>
      <rect class="cls-2" x="7.65" y="31.99" width="1.59" height="6.41" transform="translate(43.65 26.75) rotate(90)"/>
      <g>
        <rect class="cls-2" x="42.06" y="10.32" width="1.59" height="6.41"/>
        <rect class="cls-2" x="42.06" y="21.52" width="1.59" height="6.41"/>
      </g>
    </g>
  </g>
</svg>