<?xml version="1.0" encoding="UTF-8"?>
<svg id="cc_reverse_layer_keyframes" xmlns="http://www.w3.org/2000/svg" xmlns:xlink="http://www.w3.org/1999/xlink" viewBox="0 0 48 40">
  <defs>
    <style>
      .cls-1 {
        fill: #fff;
      }
    </style>
    <filter id="drop-shadow-1" x="410.81" y="342.11" width="46" height="33" filterUnits="userSpaceOnUse">
      <feOffset dx="0" dy="2.13"/>
      <feGaussianBlur result="blur" stdDeviation="1.06"/>
      <feFlood flood-color="#000" flood-opacity="1"/>
      <feComposite in2="blur" operator="in"/>
      <feComposite in="SourceGraphic"/>
    </filter>
  </defs>
  <path class="cls-1" d="M38.55,21.71s-.04,0-.05,0c-.75-.03-1.33-.66-1.31-1.41.01-.39.2-9.56-9.19-12.81-9.35-3.23-14.76,4.78-14.99,5.12-.41.63-1.26.8-1.88.39-.63-.41-.8-1.25-.39-1.88.07-.1,6.78-10.14,18.15-6.2,11.33,3.92,11.02,15.37,11.02,15.48-.03.73-.63,1.31-1.36,1.31Z"/>
  <path class="cls-1" d="M24.49,36c-1.37,0-2.86-.18-4.47-.6-11.79-3.06-11.93-15.34-11.93-15.46,0-.75.61-1.36,1.36-1.36s1.36.61,1.36,1.36c0,.42.16,10.31,9.89,12.83,9.71,2.51,14.05-5.08,14.23-5.4.36-.66,1.19-.89,1.85-.53.66.36.9,1.18.54,1.84-.05.08-4.11,7.32-12.82,7.32Z"/>
  <path class="cls-1" d="M38.55,21.3c-.75,0-1.36-.61-1.36-1.36V7.01c0-.75.61-1.36,1.36-1.36s1.36.61,1.36,1.36v12.93c0,.75-.61,1.36-1.36,1.36Z"/>
  <path class="cls-1" d="M9.45,34.23c-.75,0-1.36-.61-1.36-1.36v-12.93c0-.75.61-1.36,1.36-1.36s1.36.61,1.36,1.36v12.93c0,.75-.61,1.36-1.36,1.36Z"/>
  <circle class="cls-1" cx="24" cy="19.71" r="6.03"/>
</svg>