<?xml version="1.0" encoding="UTF-8"?>
<svg id="DV_select_Bone_layer" xmlns="http://www.w3.org/2000/svg" xmlns:xlink="http://www.w3.org/1999/xlink" viewBox="0 0 48 40">
  <defs>
    <style>
      .cls-1 {
        fill: #fff;
      }

      .cls-1, .cls-2 {
        fill-rule: evenodd;
      }

      .cls-2 {
        fill: #7e39dc;
      }
    </style>
    <filter id="drop-shadow-1" x="342.58" y="207.65" width="46" height="33" filterUnits="userSpaceOnUse">
      <feOffset dx="0" dy="2.13"/>
      <feGaussianBlur result="blur" stdDeviation="1.06"/>
      <feFlood flood-color="#000" flood-opacity="1"/>
      <feComposite in2="blur" operator="in"/>
      <feComposite in="SourceGraphic"/>
    </filter>
  </defs>
  <polygon class="cls-2" points="41.92 4 6.08 4 6.08 36 41.92 36 41.92 4 41.92 4"/>
  <g>
    <path class="cls-1" d="M40.13,10.77c0-1.98-1.61-3.58-3.58-3.58H11.46c-1.98,0-3.58,1.61-3.58,3.58s1.61,3.58,3.58,3.58h25.08c1.98,0,3.58-1.61,3.58-3.58h0Z"/>
    <path d="M36.54,15.4H11.46c-2.55,0-4.63-2.08-4.63-4.63s2.08-4.63,4.63-4.63h25.08c2.55,0,4.63,2.08,4.63,4.63s-2.08,4.63-4.63,4.63ZM11.46,8.24c-1.4,0-2.53,1.14-2.53,2.54s1.14,2.53,2.53,2.53h25.08c1.4,0,2.53-1.14,2.53-2.53s-1.14-2.54-2.53-2.54H11.46Z"/>
  </g>
  <g>
    <path class="cls-1" d="M38.33,29.23c0-1.98-1.61-3.58-3.58-3.58h-15.77c-1.98,0-3.58,1.61-3.58,3.58s1.61,3.58,3.58,3.58h15.77c1.98,0,3.58-1.61,3.58-3.58h0Z"/>
    <path d="M34.75,33.86h-15.77c-2.55,0-4.63-2.08-4.63-4.63s2.08-4.63,4.63-4.63h15.77c2.55,0,4.63,2.08,4.63,4.63s-2.08,4.63-4.63,4.63ZM18.98,26.69c-1.4,0-2.53,1.14-2.53,2.54s1.14,2.54,2.53,2.54h15.77c1.4,0,2.54-1.14,2.54-2.54s-1.14-2.54-2.54-2.54h-15.77Z"/>
  </g>
  <polygon points="27.31 16.15 22.21 21.96 25.22 21.96 25.22 23.31 29.4 23.31 29.4 21.96 32.42 21.96 27.31 16.15 27.31 16.15"/>
</svg>