<?xml version="1.0" encoding="UTF-8"?>
<svg id="lm_transform_layer_modified" xmlns="http://www.w3.org/2000/svg" xmlns:xlink="http://www.w3.org/1999/xlink" viewBox="0 0 48 40">
  <defs>
    <style>
      .cls-1 {
        fill: #97d0f2;
      }
    </style>
    <filter id="drop-shadow-1" x="206.14" y="543.81" width="46" height="33" filterUnits="userSpaceOnUse">
      <feOffset dx="0" dy="2.13"/>
      <feGaussianBlur result="blur" stdDeviation="1.06"/>
      <feFlood flood-color="#000" flood-opacity="1"/>
      <feComposite in2="blur" operator="in"/>
      <feComposite in="SourceGraphic"/>
    </filter>
  </defs>
  <g>
    <g>
      <polygon class="cls-1" points="18.03 4.91 8.82 14.12 8.82 35.09 39.19 35.09 39.19 4.91 18.03 4.91"/>
      <path d="M40.09,36H7.91V13.74l9.74-9.74h22.44v32ZM9.72,34.19h28.56V5.81h-19.88l-8.68,8.68v19.69Z"/>
    </g>
    <path d="M18.03,15.02h-9.21c-.5,0-.91-.41-.91-.91s.41-.91.91-.91h9.21c.5,0,.91.41.91.91s-.41.91-.91.91Z"/>
    <path d="M18.03,15.02c-.5,0-.91-.41-.91-.91V4.91c0-.5.41-.91.91-.91s.91.41.91.91v9.21c0,.5-.41.91-.91.91Z"/>
  </g>
  <g>
    <path d="M15.65,22.28c-.5,0-.91-.41-.91-.91s.41-.91.91-.91h18.81c.5,0,.91.4.91.9s-.41.91-.91.91H15.65Z"/>
    <path d="M15.65,22.28c-.21,0-.42-.07-.6-.22-.38-.33-.41-.9-.08-1.28l2.48-2.84c.33-.38.9-.41,1.28-.08.38.33.41.9.08,1.28l-2.48,2.84c-.18.2-.43.31-.68.31Z"/>
    <path d="M18.13,24.91c-.24,0-.48-.1-.66-.29l-2.48-2.64c-.34-.36-.33-.94.04-1.28.36-.34.94-.33,1.28.04l2.48,2.64c.34.36.33.94-.04,1.28-.17.16-.4.25-.62.25Z"/>
    <path d="M34.46,22.27c-.25,0-.51-.11-.69-.31l-2.44-2.83c-.33-.38-.29-.95.09-1.28.38-.33.95-.28,1.28.09l2.44,2.83c.33.38.29.95-.09,1.28-.17.15-.38.22-.59.22Z"/>
    <path d="M32.01,24.91c-.22,0-.44-.08-.61-.24-.37-.34-.39-.91-.05-1.28l2.44-2.64c.34-.37.91-.39,1.28-.05.37.34.39.91.05,1.28l-2.44,2.64c-.18.19-.42.29-.67.29Z"/>
  </g>
  <g>
    <rect x="24.05" y="10.96" width="1.81" height="20.62" rx=".91" ry=".91"/>
    <path d="M27.79,15.26c-.21,0-.42-.07-.6-.22l-2.84-2.48c-.38-.33-.42-.9-.09-1.28.33-.38.9-.42,1.28-.09l2.84,2.48c.38.33.42.9.09,1.28-.18.21-.43.31-.68.31Z"/>
    <path d="M22.31,15.26c-.24,0-.48-.1-.66-.29-.34-.36-.33-.94.04-1.28l2.64-2.48c.36-.34.94-.33,1.28.04s.33.94-.04,1.28l-2.64,2.48c-.17.16-.4.25-.62.25Z"/>
    <path d="M24.96,31.58c-.25,0-.51-.11-.69-.31-.33-.38-.28-.95.09-1.28l2.83-2.44c.38-.33.95-.28,1.28.09.33.38.28.95-.09,1.28l-2.83,2.44c-.17.15-.38.22-.59.22Z"/>
    <path d="M24.96,31.58c-.22,0-.44-.08-.61-.24l-2.64-2.44c-.37-.34-.39-.91-.05-1.28.34-.37.91-.39,1.28-.05l2.64,2.44c.37.34.39.91.05,1.28-.18.19-.42.29-.67.29Z"/>
  </g>
</svg>