<?xml version="1.0" encoding="UTF-8"?>
<svg id="Hayasidist" xmlns="http://www.w3.org/2000/svg" xmlns:xlink="http://www.w3.org/1999/xlink" viewBox="0 0 48 40">
  <defs>
    <style>
      .cls-1, .cls-2 {
        fill-rule: evenodd;
      }

      .cls-1, .cls-3 {
        fill: #fff;
      }

      .cls-4 {
        fill: red;
      }
    </style>
    <filter id="drop-shadow-1" x="274.36" y="140.42" width="46" height="33" filterUnits="userSpaceOnUse">
      <feOffset dx="0" dy="2.13"/>
      <feGaussianBlur result="blur" stdDeviation="1.06"/>
      <feFlood flood-color="#000" flood-opacity="1"/>
      <feComposite in2="blur" operator="in"/>
      <feComposite in="SourceGraphic"/>
    </filter>
  </defs>
  <g id="hs_shape">
    <g>
      <path class="cls-2" d="M42.27,12.95c0-4.94-4.01-8.95-8.95-8.95H14.67c-4.94,0-8.95,4.01-8.95,8.95v14.1c0,4.94,4.01,8.95,8.95,8.95h18.65c4.94,0,8.95-4.01,8.95-8.95v-14.1h0ZM40.38,12.95c0-3.89-3.16-7.05-7.05-7.05H14.67c-3.89,0-7.05,3.16-7.05,7.05v14.1c0,3.89,3.16,7.05,7.05,7.05h18.65c3.89,0,7.05-3.16,7.05-7.05v-14.1h0Z"/>
      <path class="cls-1" d="M40.38,12.95c0-3.89-3.16-7.05-7.05-7.05H14.67c-3.89,0-7.05,3.16-7.05,7.05v14.1c0,3.89,3.16,7.05,7.05,7.05h18.65c3.89,0,7.05-3.16,7.05-7.05v-14.1h0ZM38.48,12.95v14.1c0,2.85-2.31,5.16-5.16,5.16H14.67c-2.85,0-5.16-2.31-5.16-5.16v-14.1c0-2.84,2.31-5.16,5.16-5.16h18.65c2.85,0,5.16,2.31,5.16,5.16h0Z"/>
      <path class="cls-3" d="M28.55,29.14c-4.04,0-5.9-2.83-7.39-5.1-1.26-1.91-2.1-3.09-3.53-3.09-3.56,0-4.35,4.36-4.38,4.55l-.18,1.07-2.15-.36.18-1.07c.37-2.2,2.21-6.37,6.54-6.37,2.67,0,4.03,2.07,5.35,4.07,1.39,2.12,2.71,4.12,5.57,4.12,5.33,0,6.19-7.15,6.2-7.22l.12-1.09,2.17.24-.12,1.08c-.35,3.17-2.55,9.16-8.36,9.16Z"/>
      <path class="cls-4" d="M28.63,21.37c1.45,0,2.38-.57,2.79-1.71l1.67.66c-.27.76-.78,1.36-1.55,1.8-.77.44-1.72.66-2.86.66s-2.06-.22-2.91-.67c-.85-.45-1.51-1.08-1.97-1.9-.47-.82-.71-1.76-.71-2.84s.24-2,.71-2.82c.47-.82,1.13-1.46,1.97-1.91.85-.45,1.82-.68,2.91-.68s2.1.22,2.86.66c.77.44,1.28,1.04,1.55,1.79l-1.67.67c-.42-1.14-1.35-1.72-2.79-1.72-.69,0-1.3.17-1.84.5s-.94.81-1.24,1.41c-.3.61-.44,1.31-.44,2.09s.15,1.49.44,2.1c.3.61.71,1.08,1.24,1.41s1.14.5,1.84.5h0Z"/>
    </g>
  </g>
</svg>