<?xml version="1.0" encoding="UTF-8"?>
<svg id="Hayasidist" xmlns="http://www.w3.org/2000/svg" xmlns:xlink="http://www.w3.org/1999/xlink" viewBox="0 0 48 40">
  <defs>
    <style>
      .cls-1, .cls-2 {
        stroke: #000;
      }

      .cls-1, .cls-2, .cls-3 {
        stroke-linejoin: round;
        stroke-width: 1.7px;
      }

      .cls-1, .cls-4 {
        fill: #fff;
      }

      .cls-2, .cls-3 {
        fill: none;
      }

      .cls-3 {
        stroke: #fff;
        stroke-linecap: round;
      }

      .cls-5 {
        opacity: .5;
      }
    </style>
    <filter id="drop-shadow-1" x="342.58" y="140.42" width="46" height="33" filterUnits="userSpaceOnUse">
      <feOffset dx="0" dy="2.13"/>
      <feGaussianBlur result="blur" stdDeviation="1.06"/>
      <feFlood flood-color="#000" flood-opacity="1"/>
      <feComposite in2="blur" operator="in"/>
      <feComposite in="SourceGraphic"/>
    </filter>
  </defs>
  <g id="HS_SelectKeyed">
    <g>
      <g>
        <g class="cls-5">
          <rect class="cls-1" x="6.6" y="25.35" width="9.13" height="9.13"/>
          <path class="cls-1" d="M40.71,34.11c1.4-1.4.23-2.56.23-4.19,0-1.63,1.16-2.79-.23-4.19-.93-.93-2.79-.7-3.49,0-.7.7-.93,1.4-.93,2.33h-5.31c0-.93-.23-1.63-.93-2.33s-2.56-.93-3.49,0c-1.63,1.4-.23,2.79-.23,4.19,0,1.4-1.4,2.79.23,4.19.93.93,2.79.7,3.49,0,.7-.7.93-1.4.93-2.33h5.31c0,.93.23,1.63.93,2.33s2.56.93,3.49,0Z"/>
          <circle class="cls-1" cx="24" cy="11.19" r="5.91"/>
        </g>
        <g>
          <circle class="cls-2" cx="24" cy="11.19" r="5.91"/>
          <path class="cls-2" d="M40.71,34.11c1.4-1.4.23-2.56.23-4.19,0-1.63,1.16-2.79-.23-4.19-.93-.93-2.79-.7-3.49,0-.7.7-.93,1.4-.93,2.33h-5.31c0-.93-.23-1.63-.93-2.33s-2.56-.93-3.49,0c-1.63,1.4-.23,2.79-.23,4.19,0,1.4-1.4,2.79.23,4.19.93.93,2.79.7,3.49,0,.7-.7.93-1.4.93-2.33h5.31c0,.93.23,1.63.93,2.33s2.56.93,3.49,0Z"/>
          <rect class="cls-2" x="6.6" y="25.35" width="9.13" height="9.13"/>
        </g>
      </g>
      <g>
        <g>
          <path class="cls-3" d="M14.97,6.99s-5.28-.58-5.28,10.39"/>
          <polygon class="cls-4" points="5 17.23 9.69 22.39 14.38 17.23 5 17.23"/>
        </g>
        <g>
          <path class="cls-3" d="M33.03,6.99s5.28-.58,5.28,10.39"/>
          <polygon class="cls-4" points="43 17.23 38.31 22.39 33.62 17.23 43 17.23"/>
        </g>
      </g>
    </g>
  </g>
</svg>