<?xml version="1.0" encoding="UTF-8"?>
<svg id="Lukas_Krepel" data-name="Lukas Krepel" xmlns="http://www.w3.org/2000/svg" xmlns:xlink="http://www.w3.org/1999/xlink" viewBox="0 0 48 40">
  <defs>
    <style>
      .cls-1 {
        fill: #fdfdff;
        stroke-width: .89px;
      }

      .cls-1, .cls-2 {
        stroke: #fff;
      }

      .cls-1, .cls-2, .cls-3 {
        stroke-miterlimit: 24.8;
      }

      .cls-2 {
        stroke-width: 1.77px;
      }

      .cls-2, .cls-3 {
        fill: none;
      }

      .cls-3 {
        stroke: #000;
        stroke-width: 1.33px;
      }
    </style>
    <filter id="drop-shadow-1" x="78.76" y="73.19" width="46" height="33" filterUnits="userSpaceOnUse">
      <feOffset dx="0" dy="2.13"/>
      <feGaussianBlur result="blur" stdDeviation="1.06"/>
      <feFlood flood-color="#000" flood-opacity="1"/>
      <feComposite in2="blur" operator="in"/>
      <feComposite in="SourceGraphic"/>
    </filter>
  </defs>
  <g id="_图层_2-2" data-name="图层 2-2">
    <g>
      <rect class="cls-2" x="8.07" y="4.57" width="31.86" height="30.87"/>
      <circle class="cls-1" cx="12.05" cy="8.55" r=".99"/>
      <line class="cls-2" x1="15.04" y1="8.55" x2="36.95" y2="8.55"/>
      <path class="cls-3" d="M12.55,13.03h22.9c.83,0,1.5.67,1.5,1.49h0c0,.82-.67,1.49-1.5,1.49H12.55c-.83,0-1.5-.67-1.5-1.49h0c0-.82.67-1.49,1.5-1.49Z"/>
      <path class="cls-3" d="M12.55,19h22.9c.83,0,1.5.67,1.5,1.5h0c0,.83-.67,1.5-1.5,1.5H12.55c-.83,0-1.5-.67-1.5-1.5h0c0-.83.67-1.5,1.5-1.5Z"/>
      <path class="cls-3" d="M12.55,24.97h22.9c.83,0,1.5.67,1.5,1.5h0c0,.83-.67,1.5-1.5,1.5H12.55c-.83,0-1.5-.67-1.5-1.5h0c0-.83.67-1.5,1.5-1.5Z"/>
    </g>
  </g>
</svg>