<?xml version="1.0" encoding="UTF-8"?>
<svg id="Lukas_Krepel" data-name="Lukas Krepel" xmlns="http://www.w3.org/2000/svg" xmlns:xlink="http://www.w3.org/1999/xlink" viewBox="0 0 48 40">
  <defs>
    <style>
      .cls-1 {
        fill: #fff;
      }
    </style>
    <filter id="drop-shadow-1" x="274.36" y="73.19" width="46" height="33" filterUnits="userSpaceOnUse">
      <feOffset dx="0" dy="2.13"/>
      <feGaussianBlur result="blur" stdDeviation="1.06"/>
      <feFlood flood-color="#000" flood-opacity="1"/>
      <feComposite in2="blur" operator="in"/>
      <feComposite in="SourceGraphic"/>
    </filter>
  </defs>
  <g id="LK_Storyboard">
    <g>
      <path class="cls-1" d="M3.71,4v32h40.58V4H3.71ZM35.82,6.18h2.13v2.13h-2.13v-2.13ZM31.55,6.18h2.13v2.13h-2.13v-2.13ZM27.28,6.18h2.13v2.13h-2.13v-2.13ZM23.02,6.18h2.13v2.13h-2.13v-2.13ZM18.75,6.18h2.13v2.13h-2.13v-2.13ZM14.48,6.18h2.13v2.13h-2.13v-2.13ZM10.21,6.18h2.13v2.13h-2.13v-2.13ZM5.94,6.18h2.13v2.13h-2.13v-2.13ZM8.07,33.91h-2.13v-2.13h2.13v2.13ZM12.34,33.91h-2.13v-2.13h2.13v2.13ZM16.61,33.91h-2.13v-2.13h2.13v2.13ZM20.87,33.91h-2.13v-2.13h2.13v2.13ZM25.14,33.91h-2.13v-2.13h2.13v2.13ZM29.41,33.91h-2.13v-2.13h2.13v2.13ZM33.68,33.91h-2.13v-2.13h2.13v2.13ZM37.95,33.91h-2.13v-2.13h2.13v2.13ZM42.21,33.91h-2.13v-2.13h2.13v2.13ZM42.21,29.65H5.94V10.47h36.27v19.18ZM42.21,8.31h-2.13v-2.13h2.13v2.13Z"/>
      <g>
        <rect x="18.74" y="14.73" width="10.66" height="2.13" transform="translate(48.15 31.59) rotate(180)"/>
        <rect x="18.88" y="19.11" width="10.4" height="2.13" transform="translate(3.9 44.25) rotate(-90)"/>
      </g>
      <g>
        <rect x="8.08" y="16.86" width="2.13" height="2.13"/>
        <rect x="14.48" y="21.12" width="2.13" height="2.13"/>
        <rect x="10.21" y="18.99" width="4.26" height="2.13" transform="translate(24.69 40.12) rotate(180)"/>
        <rect x="10.21" y="14.73" width="6.39" height="2.13" transform="translate(26.81 31.59) rotate(180)"/>
        <rect x="8.09" y="23.26" width="6.39" height="2.13" transform="translate(22.57 48.65) rotate(180)"/>
      </g>
      <g>
        <rect x="31.54" y="18.99" width="6.38" height="2.13" transform="translate(69.46 40.12) rotate(180)"/>
        <rect x="31.54" y="14.73" width="6.38" height="2.13" transform="translate(69.46 31.59) rotate(180)"/>
        <rect x="27.41" y="19.11" width="10.4" height="2.13" transform="translate(12.43 52.78) rotate(-90)"/>
        <rect x="31.54" y="23.26" width="6.38" height="2.13" transform="translate(69.46 48.65) rotate(180)"/>
        <rect x="37.92" y="16.86" width="2.13" height="2.13"/>
        <rect x="37.93" y="21.12" width="2.13" height="2.13"/>
      </g>
    </g>
  </g>
</svg>