<?xml version="1.0" encoding="UTF-8"?>
<svg id="Eugene_Babich" data-name="Eugene Babich" xmlns="http://www.w3.org/2000/svg" xmlns:xlink="http://www.w3.org/1999/xlink" viewBox="0 0 48 40">
  <defs>
    <style>
      .cls-1 {
        fill: #fff;
      }

      .cls-2 {
        opacity: .4;
      }
    </style>
    <filter id="drop-shadow-1" x="-66.75" y="5.96" width="46" height="33" filterUnits="userSpaceOnUse">
      <feOffset dx="0" dy="2.13"/>
      <feGaussianBlur result="blur" stdDeviation="1.06"/>
      <feFlood flood-color="#000" flood-opacity="1"/>
      <feComposite in2="blur" operator="in"/>
      <feComposite in="SourceGraphic"/>
    </filter>
  </defs>
  <g id="MR_Overlay" data-name="MR Overlay">
    <g>
      <g class="cls-2">
        <circle class="cls-1" cx="28.67" cy="17.55" r="11.67"/>
        <path d="M28.67,5.88c6.45,0,11.67,5.23,11.67,11.67s-5.23,11.67-11.67,11.67-11.67-5.23-11.67-11.67,5.23-11.67,11.67-11.67M28.67,4c-7.47,0-13.55,6.08-13.55,13.55s6.08,13.55,13.55,13.55,13.55-6.08,13.55-13.55-6.08-13.55-13.55-13.55h0Z"/>
      </g>
      <g>
        <circle class="cls-1" cx="19.33" cy="22.45" r="11.67"/>
        <path d="M19.33,10.78c6.45,0,11.67,5.23,11.67,11.67s-5.23,11.67-11.67,11.67-11.67-5.23-11.67-11.67,5.23-11.67,11.67-11.67M19.33,8.9c-7.47,0-13.55,6.08-13.55,13.55s6.08,13.55,13.55,13.55,13.55-6.08,13.55-13.55-6.08-13.55-13.55-13.55h0Z"/>
      </g>
    </g>
  </g>
</svg>