<?xml version="1.0" encoding="UTF-8"?>
<svg id="Eugene_Babich" data-name="Eugene Babich" xmlns="http://www.w3.org/2000/svg" xmlns:xlink="http://www.w3.org/1999/xlink" viewBox="0 0 48 40">
  <defs>
    <style>
      .cls-1 {
        fill: none;
      }

      .cls-2 {
        fill: #fff;
      }
    </style>
    <filter id="drop-shadow-1" x="-203.19" y="5.96" width="46" height="33" filterUnits="userSpaceOnUse">
      <feOffset dx="0" dy="2.13"/>
      <feGaussianBlur result="blur" stdDeviation="1.06"/>
      <feFlood flood-color="#000" flood-opacity="1"/>
      <feComposite in2="blur" operator="in"/>
      <feComposite in="SourceGraphic"/>
    </filter>
  </defs>
  <g id="mr_curve_tool">
    <g>
      <path class="cls-1" d="M22.25,30.29v.41c.48,0,.97-.02,1.48-.07.6-.06,1.17-.15,1.72-.26v-.08h-3.2Z"/>
      <path class="cls-1" d="M41.49,8.12c0,.53-.01,1.06-.03,1.6h.37v-3.2h-3.2v3.2h.3c.02-.53.04-1.07.04-1.6h2.52Z"/>
      <path class="cls-1" d="M6.17,19.36v3.2h.93c-.28-.65-.41-1.05-.42-1.07l1.2-.37,1.2-.37s0,0,0,0h0s0,0,0,0c.02.07.11.34.28.76v-2.14h-3.2Z"/>
      <path class="cls-1" d="M22.25,33.22v.26h3.2v-.55c-.48.08-.97.16-1.48.2-.59.06-1.17.08-1.72.09Z"/>
      <path class="cls-2" d="M11.37,25.07h-2.96c1.86,3.06,5.38,7.08,11.33,7.97v-2.55c-4.06-.72-6.72-3.16-8.36-5.42Z"/>
      <path class="cls-2" d="M27.97,29.62v2.69c8.54-2.76,12.42-11.33,13.31-20.08h-2.53c-.82,7.47-4,14.71-10.78,17.39Z"/>
      <path class="cls-2" d="M6.17,22.56v-3.2h3.2v2.14c.33.81.96,2.16,2,3.58h.52v-8.23H3.66v8.23h4.75c-.6-.99-1.03-1.87-1.3-2.52h-.93Z"/>
      <path class="cls-2" d="M9.37,21.5v1.06h-2.27c.28.64.7,1.53,1.3,2.52h2.96c-1.03-1.42-1.67-2.77-2-3.58Z"/>
      <path class="cls-2" d="M25.45,33.48h-3.2v-.26s-.06,0-.09,0c-.85,0-1.66-.07-2.43-.18v2.96h8.23v-3.69c-.8.26-1.64.47-2.52.62v.55Z"/>
      <path class="cls-2" d="M22.25,30.7v-.41h3.2v.08c.89-.18,1.73-.43,2.52-.74v-1.86h-8.23v2.73c.79.14,1.63.21,2.52.21Z"/>
      <path class="cls-2" d="M25.45,30.37v2.56c.88-.15,1.72-.36,2.52-.62v-2.69c-.79.31-1.63.56-2.52.74Z"/>
      <path class="cls-2" d="M22.25,33.22v-2.52c-.89,0-1.73-.07-2.52-.21v2.55c.77.11,1.58.18,2.43.18.03,0,.06,0,.09,0Z"/>
      <path class="cls-2" d="M44.34,4h-8.23v8.23h2.63c.09-.84.16-1.68.19-2.52h-.3v-3.2h3.2v3.2h-.37c-.03.84-.09,1.68-.18,2.52h3.07V4Z"/>
      <path class="cls-2" d="M38.93,9.71c-.03.84-.1,1.68-.19,2.52h2.53c.09-.84.14-1.68.18-2.52h-2.52Z"/>
    </g>
  </g>
</svg>