<?xml version="1.0" encoding="UTF-8"?>
<svg id="Eugene_Babich" data-name="Eugene Babich" xmlns="http://www.w3.org/2000/svg" xmlns:xlink="http://www.w3.org/1999/xlink" viewBox="0 0 48 40">
  <defs>
    <style>
      .cls-1 {
        fill: none;
      }

      .cls-2 {
        fill: #2f2f2f;
      }

      .cls-3 {
        fill: #e03330;
      }

      .cls-4 {
        clip-path: url(#clippath-1);
      }

      .cls-5 {
        fill: #fff;
      }

      .cls-6 {
        fill: #363641;
      }

      .cls-7 {
        fill: #bbb9b9;
      }

      .cls-8 {
        clip-path: url(#clippath);
      }
    </style>
    <filter id="drop-shadow-1" x="69.7" y="5.96" width="46" height="33" filterUnits="userSpaceOnUse">
      <feOffset dx="0" dy="2.13"/>
      <feGaussianBlur result="blur" stdDeviation="1.06"/>
      <feFlood flood-color="#000" flood-opacity="1"/>
      <feComposite in2="blur" operator="in"/>
      <feComposite in="SourceGraphic"/>
    </filter>
    <clipPath id="clippath">
      <circle class="cls-1" cx="10.8" cy="9.54" r="5.54"/>
    </clipPath>
    <clipPath id="clippath-1">
      <circle class="cls-1" cx="26.75" cy="21.58" r="5.54"/>
    </clipPath>
  </defs>
  <g id="mr_continue_animation">
    <g>
      <rect class="cls-3" x="22.09" y="3.12" width="3.18" height="32.3" transform="translate(-5.97 26.55) rotate(-52.94)"/>
      <rect class="cls-3" x="38.81" y="30.17" width="3.18" height="3.45" transform="translate(-9.4 44.9) rotate(-52.93)"/>
      <g>
        <circle class="cls-6" cx="11.85" cy="10.81" r="5.54"/>
        <circle class="cls-7" cx="10.8" cy="9.54" r="5.54"/>
        <g class="cls-8">
          <rect class="cls-2" x="4.65" y="7.79" width="12.29" height="3.49"/>
        </g>
      </g>
      <g>
        <circle class="cls-6" cx="27.8" cy="22.86" r="5.54"/>
        <circle class="cls-7" cx="26.75" cy="21.58" r="5.54"/>
        <g class="cls-4">
          <rect class="cls-2" x="20.6" y="19.83" width="12.29" height="3.49"/>
        </g>
      </g>
      <g>
        <polygon class="cls-5" points="42.66 21.7 33.91 21.7 42.66 12.94 42.66 21.7"/>
        <rect class="cls-5" x="33.72" y="3.04" width="3.18" height="17.24" transform="translate(1.34 26.77) rotate(-42.25)"/>
      </g>
      <g>
        <polygon class="cls-5" points="23.17 36 23.17 27.24 14.42 36 23.17 36"/>
        <rect class="cls-5" x="12.18" y="19.39" width="3.18" height="17.23" transform="translate(-15.15 16.27) rotate(-41.72)"/>
      </g>
    </g>
  </g>
</svg>