<?xml version="1.0" encoding="UTF-8"?>
<svg id="Eugene_Babich" data-name="Eugene Babich" xmlns="http://www.w3.org/2000/svg" xmlns:xlink="http://www.w3.org/1999/xlink" viewBox="0 0 48 40">
  <defs>
    <style>
      .cls-1 {
        fill: #fff;
      }
    </style>
    <filter id="drop-shadow-1" x="274.36" y="5.96" width="46" height="33" filterUnits="userSpaceOnUse">
      <feOffset dx="0" dy="2.13"/>
      <feGaussianBlur result="blur" stdDeviation="1.06"/>
      <feFlood flood-color="#000" flood-opacity="1"/>
      <feComposite in2="blur" operator="in"/>
      <feComposite in="SourceGraphic"/>
    </filter>
  </defs>
  <g id="mr_smartbone_fixer">
    <g>
      <g>
        <path class="cls-1" d="M32.29,15.26l-1.69-1.96s4.67-2.9,1.53-6.53c-2.38-2.75-6.39.81-7.39,2.9-1.28,2.69.86,5,.86,5l-7.15,6.29s-1.98-2.46-4.83-1.58c-2.21.68-6.31,4.14-3.93,6.89,3.14,3.63,6.68-.57,6.68-.57l1.69,1.96s-4.67,2.9-1.53,6.53c2.38,2.75,6.39-.81,7.39-2.9,1.28-2.69-.86-5-.86-5l7.15-6.29s1.98,2.46,4.83,1.58c2.21-.68,6.31-4.14,3.93-6.89-3.14-3.63-6.68.57-6.68.57Z"/>
        <path d="M18.64,36c-1.05,0-1.97-.43-2.7-1.28-1.01-1.17-1.43-2.41-1.23-3.69.24-1.6,1.41-2.83,2.2-3.49l-.57-.66c-.77.69-2.16,1.67-3.78,1.68h-.02c-1.28,0-2.44-.59-3.44-1.75-.85-.98-1.11-2.15-.76-3.38.66-2.31,3.37-4.27,5.06-4.8,2.38-.73,4.21.46,5.1,1.24l6.03-5.31c-.65-.99-1.57-2.98-.5-5.24.76-1.6,3.09-3.99,5.48-4.32,1.26-.17,2.38.26,3.23,1.24,1.01,1.17,1.43,2.41,1.23,3.69-.24,1.6-1.41,2.83-2.2,3.49l.57.66c.77-.69,2.16-1.67,3.78-1.68,1.3,0,2.46.58,3.47,1.75.85.98,1.11,2.15.76,3.38-.66,2.31-3.37,4.27-5.06,4.8-2.37.73-4.21-.46-5.1-1.24l-6.03,5.31c.65.99,1.57,2.98.5,5.24-.76,1.6-3.09,3.99-5.48,4.32-.18.02-.36.04-.53.04ZM16.38,24.92c.23,0,.45.1.6.28l1.69,1.96c.15.18.22.41.18.64-.03.23-.17.43-.37.56-.02.01-1.96,1.25-2.21,2.94-.12.8.16,1.59.86,2.4.49.57,1.09.8,1.81.7,1.71-.23,3.66-2.18,4.25-3.42,1.03-2.15-.66-4.04-.73-4.12-.14-.16-.22-.37-.21-.58.01-.21.11-.41.27-.55l7.15-6.29c.16-.14.38-.22.59-.2.22.02.42.12.55.29.07.08,1.69,2.02,3.97,1.32,1.31-.41,3.53-2.05,4-3.71.2-.7.06-1.33-.43-1.9-.7-.81-1.43-1.2-2.24-1.2h0c-1.71,0-3.21,1.75-3.23,1.77-.15.18-.37.28-.6.28-.26-.05-.45-.1-.61-.28l-1.69-1.96c-.15-.18-.22-.41-.18-.64.03-.23.17-.43.37-.56.02-.01,1.96-1.25,2.21-2.94.12-.8-.16-1.59-.86-2.4-.49-.57-1.09-.8-1.81-.7-1.71.23-3.66,2.18-4.25,3.42-1.03,2.15.66,4.04.73,4.12.14.16.22.37.21.58-.01.21-.11.41-.27.55l-7.15,6.29c-.16.14-.38.22-.59.2-.22-.02-.42-.12-.55-.29-.07-.08-1.69-2.02-3.97-1.32-1.31.41-3.53,2.06-4,3.71-.2.7-.06,1.33.43,1.9.7.81,1.43,1.2,2.24,1.2h.01c1.69,0,3.2-1.75,3.22-1.77.15-.18.36-.24.61-.28Z"/>
      </g>
      <g>
        <path class="cls-1" d="M31.62,14.29l-1.69-1.96s4.67-2.9,1.53-6.53c-2.38-2.75-6.39.81-7.39,2.9-1.28,2.69.86,5,.86,5l-7.15,6.29s-1.98-2.46-4.83-1.58c-2.21.68-6.31,4.14-3.93,6.89,3.14,3.63,6.68-.57,6.68-.57l1.69,1.96s-4.67,2.9-1.53,6.53c2.38,2.75,6.39-.81,7.39-2.9,1.28-2.69-.86-5-.86-5l7.15-6.29s1.98,2.46,4.83,1.58c2.21-.68,6.31-4.14,3.93-6.89-3.14-3.63-6.68.57-6.68.57Z"/>
        <path d="M17.96,35.02c-1.05,0-1.97-.43-2.7-1.28-1.01-1.17-1.43-2.41-1.23-3.69.24-1.6,1.41-2.83,2.2-3.49l-.57-.66c-.77.69-2.16,1.67-3.78,1.68h-.02c-1.28,0-2.44-.59-3.44-1.75-.85-.98-1.11-2.15-.76-3.38.66-2.31,3.37-4.27,5.06-4.8,2.38-.73,4.21.46,5.1,1.24l6.03-5.31c-.65-.99-1.57-2.98-.5-5.24.76-1.6,3.09-3.99,5.48-4.32,1.26-.17,2.38.26,3.23,1.24,1.01,1.17,1.43,2.41,1.23,3.69-.24,1.6-1.41,2.83-2.2,3.49l.57.66c.77-.69,2.16-1.67,3.78-1.68,1.29-.05,2.46.58,3.47,1.75.85.98,1.11,2.15.76,3.38-.66,2.31-3.37,4.27-5.06,4.8-2.37.73-4.21-.46-5.1-1.24l-6.03,5.31c.65.99,1.57,2.98.5,5.24-.76,1.6-3.09,3.99-5.48,4.32-.18.02-.36.04-.53.04ZM15.71,23.94c.23,0,.45.1.6.28l1.69,1.96c.15.18.22.41.18.64-.03.23-.17.43-.37.56-.02.01-1.96,1.25-2.21,2.94-.12.8.16,1.59.86,2.4.49.57,1.09.8,1.81.7,1.71-.23,3.66-2.18,4.25-3.42,1.03-2.15-.66-4.04-.73-4.12-.14-.16-.22-.37-.21-.58.01-.21.11-.41.27-.55l7.15-6.29c.16-.14.38-.22.59-.2.22.02.42.12.55.29.07.08,1.7,2.02,3.97,1.32,1.31-.41,3.53-2.06,4-3.71.2-.7.06-1.33-.43-1.9-.7-.81-1.43-1.2-2.24-1.2h-.01c-1.69,0-3.2,1.75-3.22,1.77-.15.18-.38.31-.61.28-.23,0-.45-.1-.6-.28l-1.69-1.96c-.15-.18-.22-.41-.18-.64.03-.23.17-.43.37-.56.02-.01,1.96-1.25,2.21-2.94.12-.8-.16-1.59-.86-2.4-.49-.57-1.09-.8-1.81-.7-1.71.23-3.66,2.18-4.25,3.42-1.03,2.15.66,4.04.73,4.12.14.16.22.37.21.58-.01.21-.11.41-.27.55l-7.15,6.29c-.16.14-.38.22-.59.2-.22-.02-.42-.12-.55-.29-.07-.08-1.69-2.02-3.97-1.32-1.31.41-3.53,2.05-4,3.71-.2.7-.06,1.33.43,1.9.7.81,1.43,1.2,2.24,1.2h0c1.71,0,3.21-1.75,3.23-1.77.15-.18.41-.29.61-.28Z"/>
      </g>
      <g>
        <circle class="cls-1" cx="14.89" cy="9.95" r="3.33"/>
        <path d="M14.89,14.08c-2.28,0-4.13-1.85-4.13-4.13s1.85-4.13,4.13-4.13,4.13,1.85,4.13,4.13-1.85,4.13-4.13,4.13ZM14.89,7.42c-1.4,0-2.54,1.14-2.54,2.54s1.14,2.53,2.54,2.53,2.54-1.14,2.54-2.53-1.14-2.54-2.54-2.54Z"/>
      </g>
      <g>
        <rect class="cls-1" x="15.77" y="14.22" width="10.28" height="3.01" transform="translate(16.26 -10.02) rotate(42.82)"/>
        <path d="M23.65,21.12c-.2,0-.39-.08-.54-.21l-7.54-6.99c-.32-.3-.34-.8-.04-1.13l2.05-2.21c.14-.15.34-.25.55-.25.21-.02.42.07.57.21l7.54,6.99c.32.3.34.8.04,1.13l-2.05,2.21c-.14.15-.34.25-.55.25-.01,0-.02,0-.03,0ZM17.24,13.29l6.37,5.9.96-1.04-6.37-5.9-.96,1.04Z"/>
      </g>
      <g>
        <rect class="cls-1" x="21.98" y="22.14" width="18.23" height="5.18" transform="translate(23.83 -14.33) rotate(40.97)"/>
        <path d="M36.28,33.46c-.19,0-.38-.07-.52-.2l-13.77-11.96c-.33-.29-.37-.79-.08-1.13l3.4-3.91c.14-.16.34-.26.55-.27.21-.01.42.05.58.19l13.77,11.96c.33.29.37.79.08,1.13l-3.4,3.91c-.14.16-.34.26-.55.27-.02,0-.04,0-.06,0ZM23.64,20.63l12.56,10.91,2.35-2.71-12.56-10.91-2.35,2.71Z"/>
      </g>
      <path d="M35.15,28.86c-.19,0-.37-.07-.52-.2l-9.21-8.07c-.33-.29-.36-.79-.07-1.13.29-.33.79-.36,1.12-.07l9.21,8.07c.33.29.36.79.07,1.13-.16.18-.38.27-.6.27Z"/>
    </g>
  </g>
</svg>