<?xml version="1.0" encoding="UTF-8"?>
<svg id="mr_transform_rig_tool" xmlns="http://www.w3.org/2000/svg" xmlns:xlink="http://www.w3.org/1999/xlink" viewBox="0 0 48 40">
  <defs>
    <style>
      .cls-1 {
        fill: #fc4741;
      }

      .cls-2 {
        fill: #ddf4f8;
      }

      .cls-3 {
        fill: #6f695e;
      }

      .cls-4 {
        fill: #902925;
      }
    </style>
    <filter id="drop-shadow-1" x="137.92" y="5.96" width="46" height="33" filterUnits="userSpaceOnUse">
      <feOffset dx="0" dy="2.13"/>
      <feGaussianBlur result="blur" stdDeviation="1.06"/>
      <feFlood flood-color="#000" flood-opacity="1"/>
      <feComposite in2="blur" operator="in"/>
      <feComposite in="SourceGraphic"/>
    </filter>
  </defs>
  <g>
    <polygon class="cls-2" points="36.3 10.14 36.21 12.59 32.38 12.56 32.36 8.84 34.08 8.71 33.97 4.56 28.78 4.55 25.03 9.2 25.25 13.53 17.48 20.05 10.13 20.21 6.41 23.77 6.53 29.32 11.7 29.36 11.79 26.91 15.62 26.94 15.64 30.66 13.92 30.8 14.03 34.94 19.22 34.95 22.97 30.3 22.69 24.85 29.09 19.48 37.87 19.3 41.59 15.73 41.47 10.18 36.3 10.14"/>
    <path d="M19.49,35.5h-5.99s-.14-5.21-.14-5.21l1.74-.13v-2.67s-2.77-.02-2.77-.02l-.09,2.44-6.24-.05-.13-6.33,4.05-3.88,7.37-.16,7.41-6.23-.22-4.26,4.05-5.02h5.99s.14,5.21.14,5.21l-1.74.13v2.67s2.77.02,2.77.02l.09-2.44,6.23.05.13,6.33-4.05,3.88-8.8.19-6.04,5.07.28,5.38-4.05,5.02ZM14.56,34.4h4.4s3.45-4.28,3.45-4.28l-.29-5.51,6.75-5.67,8.76-.19,3.39-3.25-.1-4.78-4.1-.03-.09,2.44-4.9-.04-.02-4.77,1.71-.13-.08-3.09h-4.4s-3.45,4.28-3.45,4.28l.23,4.38-8.13,6.83-7.33.15-3.39,3.25.1,4.78,4.1.03.09-2.44,4.9.04.02,4.77-1.71.13.08,3.09Z"/>
  </g>
  <g>
    <g>
      <polygon class="cls-3" points="15.51 6.14 10.1 4.96 8.61 6.61 10.35 11.92 13.15 11.89 24.83 22.49 27.47 19.58 15.79 8.98 15.51 6.14"/>
      <path d="M24.87,23.27l-11.93-10.83-2.99.03-1.97-6.01,1.92-2.12,6.12,1.33.3,3.02,11.93,10.83-3.39,3.73ZM13.36,11.33l11.43,10.37,1.9-2.09-11.43-10.37-.26-2.64-4.71-1.03-1.06,1.16,1.52,4.62,2.61-.03Z"/>
    </g>
    <g>
      <rect class="cls-1" x="27.95" y="15.46" width="7.9" height="21.57" rx="2.37" ry="2.37" transform="translate(-8.98 32.23) rotate(-47.77)"/>
      <path d="M37.07,36c-.7,0-1.4-.25-1.96-.76l-12.47-11.32c-1.19-1.08-1.28-2.93-.2-4.12l2.13-2.35c.52-.58,1.24-.92,2.02-.95.78-.03,1.53.23,2.1.75l12.47,11.32c.58.52.92,1.24.96,2.02.04.78-.23,1.53-.76,2.1l-2.13,2.35c-.58.63-1.37.96-2.16.96ZM26.73,17.6s-.06,0-.09,0c-.48.02-.93.23-1.25.59l-2.13,2.35c-.32.36-.49.82-.47,1.31s.23.93.59,1.25l12.47,11.32c.74.67,1.89.61,2.56-.12l2.13-2.35c.32-.36.49-.82.47-1.31-.02-.48-.23-.93-.59-1.25l-12.47-11.32c-.34-.31-.76-.47-1.22-.47Z"/>
    </g>
    <rect class="cls-4" x="31.25" y="17.19" width="1.77" height="15.65" transform="translate(-7.98 32) rotate(-47.78)"/>
  </g>
</svg>