<?xml version="1.0" encoding="UTF-8"?>
<svg id="MU_BoneRenamer" xmlns="http://www.w3.org/2000/svg" xmlns:xlink="http://www.w3.org/1999/xlink" viewBox="0 0 48 40">
  <defs>
    <style>
      .cls-1 {
        stroke: #ffb800;
      }

      .cls-1, .cls-2 {
        stroke-linecap: round;
        stroke-miterlimit: 2;
      }

      .cls-1, .cls-2, .cls-3 {
        fill: none;
        stroke-width: 1.88px;
      }

      .cls-2 {
        stroke: #69a2ff;
      }

      .cls-3 {
        stroke: #f25549;
        stroke-linejoin: round;
      }
    </style>
    <filter id="drop-shadow-1" x="-29.29" y="-128.5" width="46" height="33" filterUnits="userSpaceOnUse">
      <feOffset dx="0" dy="2.13"/>
      <feGaussianBlur result="blur" stdDeviation="1.06"/>
      <feFlood flood-color="#000" flood-opacity="1"/>
      <feComposite in2="blur" operator="in"/>
      <feComposite in="SourceGraphic"/>
    </filter>
  </defs>
  <g>
    <path class="cls-1" d="M34.86,7.96h-2.63"/>
    <path class="cls-1" d="M28.01,7.96h-2.63"/>
    <path class="cls-1" d="M34.86,19.25h-2.63"/>
  </g>
  <g>
    <path class="cls-2" d="M40.22,4.95v30.1"/>
    <path class="cls-2" d="M7.78,4.95v30.1"/>
    <path class="cls-2" d="M14.93,7.96h-7.15"/>
    <path class="cls-2" d="M26.97,32.04H7.78"/>
    <path class="cls-2" d="M20.95,20H7.78"/>
  </g>
  <g>
    <path class="cls-3" d="M20.95,7.96h0c0-1.66-1.35-3.01-3.01-3.01h0c-1.66,0-3.01,1.35-3.01,3.01h0c0,1.66,1.35,3.01,3.01,3.01h0c1.66,0,3.01-1.35,3.01-3.01Z"/>
    <path class="cls-3" d="M26.97,20h0c0-1.66-1.35-3.01-3.01-3.01h0c-1.66,0-3.01,1.35-3.01,3.01h0c0,1.66,1.35,3.01,3.01,3.01h0c1.66,0,3.01-1.35,3.01-3.01Z"/>
    <path class="cls-3" d="M32.99,32.04h0c0-1.66-1.35-3.01-3.01-3.01h0c-1.66,0-3.01,1.35-3.01,3.01h0c0,1.66,1.35,3.01,3.01,3.01h0c1.66,0,3.01-1.35,3.01-3.01Z"/>
  </g>
</svg>