<?xml version="1.0" encoding="UTF-8"?>
<svg id="MU_ReplaceImage" xmlns="http://www.w3.org/2000/svg" xmlns:xlink="http://www.w3.org/1999/xlink" viewBox="0 0 48 40">
  <defs>
    <style>
      .cls-1 {
        fill: #69a2ff;
      }

      .cls-2 {
        fill: none;
        stroke: #f9ca24;
        stroke-linecap: round;
        stroke-linejoin: round;
        stroke-width: 2.79px;
      }
    </style>
    <filter id="drop-shadow-1" x="206.14" y="-128.5" width="46" height="33" filterUnits="userSpaceOnUse">
      <feOffset dx="0" dy="2.13"/>
      <feGaussianBlur result="blur" stdDeviation="1.06"/>
      <feFlood flood-color="#000" flood-opacity="1"/>
      <feComposite in2="blur" operator="in"/>
      <feComposite in="SourceGraphic"/>
    </filter>
  </defs>
  <g>
    <path class="cls-1" d="M34.42,36H13.58c-1.44,0-2.6-1.17-2.6-2.6V6.6c0-1.44,1.17-2.6,2.6-2.6h14.88c.62,0,1.12.5,1.12,1.12v6.33h6.33c.62,0,1.12.5,1.12,1.12v20.84c0,1.44-1.17,2.6-2.6,2.6ZM13.58,6.23c-.21,0-.37.17-.37.37v26.79c0,.21.17.37.37.37h20.84c.21,0,.37-.17.37-.37V13.67h-6.33c-.62,0-1.12-.5-1.12-1.12v-6.33h-13.77Z"/>
    <path class="cls-1" d="M35.91,13.67c-.29,0-.57-.11-.79-.33l-7.44-7.44c-.44-.44-.44-1.14,0-1.58s1.14-.44,1.58,0l7.44,7.44c.44.44.44,1.14,0,1.58-.22.22-.5.33-.79.33Z"/>
  </g>
  <g>
    <path class="cls-2" d="M18.55,20.78h10.9"/>
    <path class="cls-2" d="M18.55,25.45h10.9"/>
    <path class="cls-2" d="M29.45,20.78l-3.89-3.89"/>
    <path class="cls-2" d="M22.44,29.34l-3.89-3.89"/>
  </g>
</svg>