<?xml version="1.0" encoding="UTF-8"?>
<svg id="MU_Set_One_Bone" xmlns="http://www.w3.org/2000/svg" xmlns:xlink="http://www.w3.org/1999/xlink" viewBox="0 0 48 40">
  <defs>
    <style>
      .cls-1, .cls-2 {
        fill: #69a2ff;
      }

      .cls-3 {
        fill: #ffb800;
      }

      .cls-2 {
        fill-rule: evenodd;
      }
    </style>
    <filter id="drop-shadow-1" x="342.58" y="-128.5" width="46" height="33" filterUnits="userSpaceOnUse">
      <feOffset dx="0" dy="2.13"/>
      <feGaussianBlur result="blur" stdDeviation="1.06"/>
      <feFlood flood-color="#000" flood-opacity="1"/>
      <feComposite in2="blur" operator="in"/>
      <feComposite in="SourceGraphic"/>
    </filter>
  </defs>
  <g>
    <path class="cls-2" d="M10.05,24.72c3.11,0,5.64,2.53,5.64,5.64s-2.53,5.64-5.64,5.64-5.64-2.53-5.64-5.64,2.53-5.64,5.64-5.64h0Z"/>
    <path class="cls-2" d="M37.95,24.72c3.12,0,5.64,2.53,5.64,5.64s-2.53,5.64-5.64,5.64-5.64-2.53-5.64-5.64,2.53-5.64,5.64-5.64h0Z"/>
    <rect class="cls-1" x="17.11" y="29.11" width="13.78" height="2.5"/>
  </g>
  <path class="cls-3" d="M38.11,21.28c-3.7,0-5.25-2.01-5.75-3.69H15.64c-.49,1.69-2.05,3.69-5.75,3.69-2.28,0-3.63-1.06-4.36-1.94-.85-1.03-1.34-2.43-1.34-3.84,0-1.14.31-2.13.84-2.86-.53-.72-.84-1.71-.84-2.86,0-1.41.49-2.81,1.34-3.84.73-.89,2.08-1.94,4.36-1.94,3.7,0,5.25,2.01,5.75,3.7h16.73c.49-1.69,2.05-3.7,5.75-3.7,2.28,0,3.63,1.06,4.36,1.94.85,1.03,1.34,2.43,1.34,3.84,0,1.14-.31,2.13-.84,2.86.53.72.84,1.71.84,2.86,0,1.41-.49,2.81-1.34,3.84-.73.89-2.08,1.94-4.36,1.94ZM23.59,15.09h9.83c.69,0,1.25.56,1.25,1.25.01.39.23,2.44,3.44,2.44,1.05,0,1.87-.35,2.43-1.03.49-.59.77-1.41.77-2.25s-.31-1.58-.69-1.61h-1.27v-2.5h1.27c.38-.02.69-.75.69-1.61s-.28-1.66-.77-2.25c-.57-.69-1.39-1.03-2.43-1.03-3.21,0-3.43,2.05-3.44,2.46-.02.68-.57,1.23-1.25,1.23H14.58c-.69,0-1.25-.56-1.25-1.25-.01-.4-.23-2.45-3.44-2.45-1.05,0-1.87.35-2.43,1.03-.49.59-.77,1.41-.77,2.25s.31,1.59.69,1.61h1.27v2.5h-1.27c-.38.02-.69.75-.69,1.61s.28,1.66.77,2.25c.57.69,1.39,1.03,2.43,1.03,3.21,0,3.43-2.05,3.44-2.46.02-.68.57-1.23,1.25-1.23h9.02Z"/>
</svg>