<?xml version="1.0" encoding="UTF-8"?>
<svg id="Lukas_Krepel" data-name="Lukas Krepel" xmlns="http://www.w3.org/2000/svg" xmlns:xlink="http://www.w3.org/1999/xlink" viewBox="0 0 48 40">
  <defs>
    <style>
      .cls-1 {
        fill: #fff;
      }
    </style>
    <filter id="drop-shadow-1" x="137.92" y="73.19" width="46" height="33" filterUnits="userSpaceOnUse">
      <feOffset dx="0" dy="2.13"/>
      <feGaussianBlur result="blur" stdDeviation="1.06"/>
      <feFlood flood-color="#000" flood-opacity="1"/>
      <feComposite in2="blur" operator="in"/>
      <feComposite in="SourceGraphic"/>
    </filter>
  </defs>
  <g id="rt_key_tool">
    <g>
      <g>
        <polygon points="9.79 10.18 16.28 4 3.29 4 9.79 10.18"/>
        <rect x="8.85" y="7.09" width="1.87" height="27.77"/>
      </g>
      <g>
        <polygon class="cls-1" points="31.92 12.93 25.74 19.43 25.74 6.43 31.92 12.93"/>
        <rect class="cls-1" x="14.38" y="12" width="12.45" height="1.87"/>
      </g>
      <g>
        <polygon class="cls-1" points="14.38 22.15 20.56 28.65 20.56 15.65 14.38 22.15"/>
        <rect class="cls-1" x="19.47" y="21.21" width="12.45" height="1.87"/>
      </g>
      <path class="cls-1" d="M39.81,16.06c-2.7,0-4.9-2.2-4.9-4.89s2.2-4.9,4.9-4.9,4.9,2.2,4.9,4.9-2.2,4.89-4.9,4.89ZM39.81,8.14c-1.67,0-3.03,1.36-3.03,3.03s1.36,3.03,3.03,3.03,3.03-1.36,3.03-3.03-1.36-3.03-3.03-3.03Z"/>
      <path class="cls-1" d="M39.81,29.22c-2.7,0-4.9-2.2-4.9-4.89s2.2-4.9,4.9-4.9,4.9,2.2,4.9,4.9-2.2,4.89-4.9,4.89ZM39.81,21.29c-1.67,0-3.03,1.36-3.03,3.03s1.36,3.03,3.03,3.03,3.03-1.36,3.03-3.03-1.36-3.03-3.03-3.03Z"/>
      <path class="cls-1" d="M28.84,36c-2.7,0-4.9-2.2-4.9-4.9s2.2-4.9,4.9-4.9,4.9,2.2,4.9,4.9-2.2,4.9-4.9,4.9ZM28.84,28.08c-1.67,0-3.03,1.36-3.03,3.03s1.36,3.03,3.03,3.03,3.03-1.36,3.03-3.03-1.36-3.03-3.03-3.03Z"/>
    </g>
  </g>
</svg>