<?xml version="1.0" encoding="UTF-8"?>
<svg id="ss_make_bones" xmlns="http://www.w3.org/2000/svg" xmlns:xlink="http://www.w3.org/1999/xlink" viewBox="0 0 48 40">
  <defs>
    <style>
      .cls-1 {
        fill: #fffcfc;
      }
    </style>
    <filter id="drop-shadow-1" x="410.81" y="-195.73" width="46" height="33" filterUnits="userSpaceOnUse">
      <feOffset dx="0" dy="2.13"/>
      <feGaussianBlur result="blur" stdDeviation="1.06"/>
      <feFlood flood-color="#000" flood-opacity="1"/>
      <feComposite in2="blur" operator="in"/>
      <feComposite in="SourceGraphic"/>
    </filter>
  </defs>
  <path class="cls-1" d="M37.62,34.62c-2.71,0-3.86-1.47-4.29-2.67h-5.25v-2.22h6.16c.61,0,1.11.5,1.11,1.11.01.35.21,1.56,2.27,1.56,1.55,0,1.95-1.17,2.05-1.67.16-.81-.12-1.39-.24-1.44h-1.13v-2.22h1.11c.14-.05.41-.62.25-1.43-.1-.5-.49-1.68-2.05-1.68-2.21,0-2.27,1.4-2.27,1.55,0,.61-.5,1.11-1.11,1.11h-6.16v-2.22h5.25c.42-1.2,1.58-2.67,4.29-2.67,1.72,0,2.75.8,3.31,1.48.64.78,1.01,1.84,1.01,2.91,0,.81-.21,1.52-.56,2.06.35.54.56,1.25.56,2.06,0,1.07-.37,2.13-1.01,2.91-.56.67-1.58,1.48-3.31,1.48ZM10.38,26.44c-1.72,0-2.75-.8-3.31-1.48-.64-.78-1.01-1.84-1.01-2.91,0-.81.21-1.52.56-2.06-.35-.54-.56-1.25-.56-2.06,0-1.07.37-2.13,1.01-2.91.56-.67,1.58-1.48,3.31-1.48,2.71,0,3.86,1.47,4.29,2.67h5.25v2.22h-6.16c-.61,0-1.11-.5-1.11-1.11-.01-.35-.21-1.55-2.27-1.55-1.56,0-1.95,1.17-2.05,1.68-.16.81.12,1.38.24,1.43h1.13v2.23h-1.11c-.14.05-.41.62-.25,1.44.1.5.49,1.67,2.05,1.67,2.06,0,2.26-1.2,2.27-1.57.02-.6.51-1.09,1.11-1.09h6.16v2.22h-5.25c-.42,1.2-1.58,2.67-4.29,2.67ZM37.62,18.27c-2.71,0-3.86-1.47-4.29-2.67h-5.25v-2.22h6.16c.61,0,1.11.5,1.11,1.11.01.35.21,1.55,2.27,1.55,1.56,0,1.95-1.17,2.05-1.67.16-.81-.12-1.38-.24-1.43h-1.13v-2.22h1.11c.14-.05.41-.62.26-1.43-.1-.5-.49-1.68-2.05-1.68-2.21,0-2.27,1.4-2.27,1.55,0,.61-.5,1.11-1.11,1.11h-6.16v-2.22h5.25c.42-1.2,1.58-2.67,4.29-2.67,1.72,0,2.75.8,3.31,1.48.64.78,1.01,1.84,1.01,2.91,0,.81-.21,1.52-.56,2.06.35.54.56,1.25.56,2.06,0,1.07-.37,2.13-1.01,2.91-.56.67-1.58,1.48-3.31,1.48Z"/>
  <path d="M26.68,36l-2.22-.06.06-2.87,2.17.06v2.87ZM23.54,36l-2.22-.06.06-2.87,2.17.06v2.87ZM26.68,31.42l-2.22-.06.06-3.14,2.17.06v3.13ZM23.54,31.42l-2.22-.06.06-3.14,2.17.06v3.13ZM26.68,26.57l-2.22-.06.06-3.13,2.17.06v3.14ZM23.54,26.57l-2.22-.06.06-3.13,2.17.06v3.14ZM26.68,21.73l-2.22-.06.06-3.14,2.17.06v3.14ZM23.54,21.73l-2.22-.06.06-3.14,2.17.06v3.14ZM26.68,16.89l-2.22-.06.06-3.14,2.17.06v3.14ZM23.54,16.89l-2.22-.06.06-3.14,2.17.06v3.14ZM26.68,12.04l-2.22-.06.06-3.14,2.17.06v3.14ZM23.54,12.04l-2.22-.06.06-3.14,2.17.06v3.14ZM26.68,7.19l-2.22-.06.06-3.14,2.17.06v3.14ZM23.54,7.19l-2.22-.06.06-3.14,2.17.06v3.14Z"/>
</svg>