<?xml version="1.0" encoding="UTF-8"?>
<svg id="SS_-_Multi_Layer_Transform_Points" data-name="SS - Multi Layer Transform Points" xmlns="http://www.w3.org/2000/svg" xmlns:xlink="http://www.w3.org/1999/xlink" viewBox="0 0 48 40">
  <defs>
    <style>
      .cls-1 {
        fill: #fff;
      }
    </style>
    <filter id="drop-shadow-1" x="137.92" y="-195.73" width="46" height="33" filterUnits="userSpaceOnUse">
      <feOffset dx="0" dy="2.13"/>
      <feGaussianBlur result="blur" stdDeviation="1.06"/>
      <feFlood flood-color="#000" flood-opacity="1"/>
      <feComposite in2="blur" operator="in"/>
      <feComposite in="SourceGraphic"/>
    </filter>
  </defs>
  <g>
    <path class="cls-1" d="M12.09,28.73c-1.3,0-2.36-1.06-2.36-2.36V8.48c0-1.3,1.06-2.36,2.36-2.36h19.09c1.3,0,2.36,1.06,2.36,2.36v.68h2.11v-.68c0-2.47-2.01-4.48-4.48-4.48H12.09c-2.47,0-4.48,2.01-4.48,4.48v17.89c0,2.47,2.01,4.48,4.48,4.48h.25v-2.11h-.25Z"/>
    <path class="cls-1" d="M35.91,36h-19.09c-2.47,0-4.48-2.01-4.48-4.48V13.63c0-2.47,2.01-4.48,4.48-4.48h19.09c2.47,0,4.48,2.01,4.48,4.48v17.89c0,2.47-2.01,4.48-4.48,4.48ZM16.82,11.27c-1.3,0-2.36,1.06-2.36,2.36v17.89c0,1.3,1.06,2.36,2.36,2.36h19.09c1.3,0,2.36-1.06,2.36-2.36V13.63c0-1.3-1.06-2.36-2.36-2.36h-19.09Z"/>
  </g>
  <g>
    <rect x="20.13" y="21.94" width="13.26" height="1.55"/>
    <polygon points="20.8 25.51 16.99 22.72 20.8 19.93 20.8 25.51"/>
    <polygon points="32.41 19.93 36.22 22.72 32.41 25.51 32.41 19.93"/>
    <rect x="25.83" y="16.25" width="1.55" height="13.26"/>
    <polygon points="23.81 17.51 26.6 13.7 29.39 17.51 23.81 17.51"/>
    <polygon points="29.39 28.52 26.6 32.33 23.81 28.52 29.39 28.52"/>
  </g>
</svg>