<?xml version="1.0" encoding="UTF-8"?>
<svg id="ss_ref_layer_update" xmlns="http://www.w3.org/2000/svg" xmlns:xlink="http://www.w3.org/1999/xlink" viewBox="0 0 48 40">
  <defs>
    <style>
      .cls-1 {
        fill: #fff;
      }
    </style>
    <filter id="drop-shadow-1" x="206.14" y="-195.73" width="46" height="33" filterUnits="userSpaceOnUse">
      <feOffset dx="0" dy="2.13"/>
      <feGaussianBlur result="blur" stdDeviation="1.06"/>
      <feFlood flood-color="#000" flood-opacity="1"/>
      <feComposite in2="blur" operator="in"/>
      <feComposite in="SourceGraphic"/>
    </filter>
  </defs>
  <g>
    <rect class="cls-1" x="18.29" y="11.47" width="4.02" height="17.25"/>
    <path class="cls-1" d="M29.82,28.71h-4.02c-.17-2.79-1.33-5.42-3.27-7.43l-1.18-1.22h4.53l.04.04c2.25,2.33,3.63,5.37,3.89,8.6h0Z"/>
    <path class="cls-1" d="M24.13,11.47h-5.84v3.47h5.64c.97,0,1.76.79,1.76,1.76s-.79,1.76-1.76,1.76h-5.64v3.47h5.84c2.89,0,5.23-2.34,5.23-5.23s-2.34-5.23-5.23-5.23Z"/>
  </g>
  <g>
    <g>
      <path d="M23.91,32.01c-6.63,0-12.01-5.38-12.01-12.01,0-.85-3.99-1.55-3.99,0,0,8.84,7.16,16,16,16,4.73,0,8.97-2.06,11.9-5.33l-3.6-2c-2.16,2.06-5.07,3.34-8.3,3.34Z"/>
      <path d="M23.91,7.99c6.63,0,12.01,5.38,12.01,12.01,0,.85,3.99,1.55,3.99,0,0-8.84-7.16-16-16-16-4.73,0-8.97,2.06-11.9,5.33l3.6,2c2.16-2.06,5.07-3.34,8.3-3.34Z"/>
    </g>
    <polygon points="4.41 22.52 10.29 15.01 16.16 22.52 4.41 22.52"/>
    <polygon points="31.84 17.62 37.71 25.12 43.59 17.62 31.84 17.62"/>
  </g>
</svg>