<?xml version="1.0" encoding="UTF-8"?>
<svg id="ss_svg_import" xmlns="http://www.w3.org/2000/svg" xmlns:xlink="http://www.w3.org/1999/xlink" viewBox="0 0 48 40">
  <defs>
    <style>
      .cls-1 {
        fill: #ffb13b;
      }

      .cls-2 {
        fill: #fff;
      }
    </style>
    <filter id="drop-shadow-1" x="274.36" y="-195.73" width="46" height="33" filterUnits="userSpaceOnUse">
      <feOffset dx="0" dy="2.13"/>
      <feGaussianBlur result="blur" stdDeviation="1.06"/>
      <feFlood flood-color="#000" flood-opacity="1"/>
      <feComposite in2="blur" operator="in"/>
      <feComposite in="SourceGraphic"/>
    </filter>
  </defs>
  <g>
    <g>
      <path d="M9.59,21.25c0-1.29.36-2.29,1.09-2.98.73-.69,1.82-1.04,3.28-1.04s2.55.35,3.28,1.04c.73.69,1.09,1.69,1.09,2.98v.62h-2.8v-.78c0-.58-.13-.99-.39-1.22-.26-.24-.63-.35-1.09-.35s-.83.12-1.09.35c-.26.24-.39.64-.39,1.22,0,.55.14,1.03.43,1.45.29.42.65.82,1.08,1.19.43.37.89.75,1.39,1.12s.96.78,1.39,1.22c.43.44.79.94,1.08,1.51s.43,1.23.43,1.99c0,1.3-.37,2.29-1.12,2.98-.75.69-1.85,1.04-3.31,1.04s-2.56-.35-3.3-1.04c-.75-.69-1.12-1.69-1.12-2.98v-1.1h2.81v1.26c0,.58.14.98.42,1.21.28.23.65.34,1.12.34s.84-.12,1.12-.34c.28-.23.42-.63.42-1.21,0-.55-.14-1.03-.43-1.45-.29-.42-.65-.82-1.08-1.19-.43-.37-.89-.75-1.39-1.12s-.96-.78-1.39-1.22c-.43-.44-.79-.94-1.08-1.51s-.43-1.23-.43-1.99Z"/>
      <path d="M13.96,17.22c1.46,0,2.55.35,3.28,1.04.73.69,1.09,1.69,1.09,2.98v.62h-2.81v-.78c0-.58-.13-.99-.39-1.22-.26-.24-.63-.35-1.09-.35s-.83.12-1.09.35c-.26.24-.39.64-.39,1.22,0,.55.14,1.03.43,1.45.29.42.65.82,1.08,1.19.43.37.89.75,1.39,1.12.49.37.96.78,1.39,1.22.43.44.79.94,1.08,1.51.29.56.43,1.23.43,1.99,0,1.3-.37,2.29-1.12,2.98-.75.69-1.85,1.04-3.31,1.04s-2.56-.35-3.3-1.04c-.75-.69-1.12-1.69-1.12-2.98v-1.1h2.81v1.26c0,.58.14.98.42,1.21.28.23.65.34,1.12.34s.84-.12,1.12-.34c.28-.23.42-.63.42-1.21,0-.55-.14-1.03-.43-1.45-.29-.42-.65-.82-1.08-1.19-.43-.37-.89-.75-1.39-1.12-.49-.37-.96-.78-1.39-1.22-.43-.44-.79-.94-1.08-1.51s-.43-1.23-.43-1.99c0-1.29.36-2.29,1.09-2.98.73-.69,1.82-1.04,3.28-1.04M13.96,14.82c-2.09,0-3.75.57-4.94,1.7-.84.8-1.84,2.27-1.84,4.73,0,1.14.23,2.18.69,3.08.32.63.71,1.21,1.17,1.74h-1.94v3.5c0,2.47,1.03,3.95,1.89,4.75,1.2,1.12,2.86,1.68,4.94,1.68s3.74-.57,4.94-1.68c.86-.8,1.89-2.27,1.89-4.75,0-1.14-.23-2.18-.69-3.08-.4-.78-.9-1.48-1.5-2.1-.04-.04-.08-.08-.12-.12h2.29v-3.02c0-2.46-1-3.92-1.84-4.72-1.19-1.13-2.85-1.71-4.94-1.71h0Z"/>
    </g>
    <g>
      <path d="M24.03,30.46l2.27-13.05h2.73l-2.91,16h-4.42l-2.91-16h2.99l2.27,13.05Z"/>
      <path d="M29.02,17.41l-2.91,16h-4.42l-2.91-16h2.99l2.27,13.05,2.27-13.05h2.73M31.9,15h-7.63l-.24,1.39-.24-1.39h-7.9l.52,2.84,2.91,16,.36,1.98h8.44l.36-1.98,2.91-16,.52-2.84h0Z"/>
    </g>
    <g>
      <path d="M34.33,24.49h4.16v5.08c0,1.3-.37,2.29-1.12,2.98-.75.69-1.85,1.04-3.3,1.04s-2.56-.35-3.31-1.04c-.75-.69-1.12-1.69-1.12-2.98v-8.32c0-1.29.37-2.29,1.12-2.98.75-.69,1.85-1.04,3.31-1.04s2.56.35,3.3,1.04c.75.69,1.12,1.69,1.12,2.98v1.55h-2.81v-1.71c0-.58-.14-.99-.42-1.22-.28-.24-.65-.35-1.12-.35s-.84.12-1.12.35c-.28.24-.42.64-.42,1.22v8.64c0,.58.14.98.42,1.21.28.23.65.34,1.12.34s.84-.12,1.12-.34c.28-.23.42-.63.42-1.21v-2.95h-1.35v-2.29Z"/>
      <path d="M34.06,17.22c1.46,0,2.56.35,3.3,1.04.75.69,1.12,1.69,1.12,2.98v1.55h-2.81v-1.71c0-.58-.14-.99-.42-1.22-.28-.24-.65-.35-1.12-.35s-.84.12-1.12.35c-.28.24-.42.64-.42,1.22v8.64c0,.58.14.98.42,1.21.28.23.65.34,1.12.34s.84-.12,1.12-.34c.28-.23.42-.63.42-1.21v-2.95h-1.35v-2.29h4.16v5.08c0,1.3-.37,2.29-1.12,2.98-.75.69-1.85,1.04-3.3,1.04s-2.56-.35-3.31-1.04c-.75-.69-1.12-1.69-1.12-2.98v-8.32c0-1.29.37-2.29,1.12-2.98.75-.69,1.85-1.04,3.31-1.04M34.06,14.82c-2.08,0-3.74.57-4.94,1.68-.86.8-1.89,2.28-1.89,4.75v8.32c0,2.47,1.03,3.95,1.89,4.75,1.2,1.12,2.86,1.68,4.94,1.68s3.74-.57,4.94-1.69c.86-.8,1.89-2.27,1.89-4.75v-8.32c0-2.47-1.03-3.94-1.89-4.75-1.2-1.12-2.87-1.68-4.94-1.68h0Z"/>
    </g>
  </g>
  <g>
    <path class="cls-1" d="M20.88,16.39h0c-.72.72-1.91.72-2.63,0l-4.17-4.17c-.72-.72-.72-1.91,0-2.63h0c.72-.72,1.91-.72,2.63,0l4.17,4.17c.72.72.72,1.91,0,2.63ZM27.35,16.39h0c.72.72,1.91.72,2.63,0l4.17-4.17c.72-.72.72-1.91,0-2.63h0c-.72-.72-1.91-.72-2.63,0l-4.17,4.17c-.72.72-.72,1.91,0,2.63ZM25.97,14.16v-5.89c0-1.02-.84-1.86-1.86-1.86h0c-1.02,0-1.86.84-1.86,1.86v5.89c0,1.02.84,1.86,1.86,1.86h0c1.02,0,1.86-.84,1.86-1.86Z"/>
    <path d="M24.11,6.41c1.02,0,1.86.84,1.86,1.86v5.89c0,1.02-.84,1.86-1.86,1.86s-1.86-.84-1.86-1.86v-5.89c0-1.02.84-1.86,1.86-1.86M32.84,9.05c.48,0,.95.18,1.32.54.72.72.72,1.91,0,2.63l-4.17,4.17c-.36.36-.84.54-1.32.54s-.95-.18-1.32-.54c-.72-.72-.72-1.91,0-2.63l4.17-4.17c.36-.36.84-.54,1.32-.54M15.4,9.05c.48,0,.95.18,1.32.54l4.17,4.17c.72.72.72,1.91,0,2.63-.36.36-.84.54-1.32.54s-.95-.18-1.32-.54l-4.17-4.17c-.72-.72-.72-1.91,0-2.63.36-.36.84-.54,1.32-.54M24.11,4c-2.35,0-4.27,1.91-4.27,4.27v1.05l-1.43-1.43c-.8-.8-1.88-1.25-3.02-1.25s-2.21.44-3.02,1.25c-.8.8-1.25,1.88-1.25,3.02s.44,2.21,1.25,3.02l4.17,4.17c.8.8,1.88,1.25,3.02,1.25s2.18-.43,2.98-1.21c.49.19,1.01.3,1.57.3s1.09-.11,1.58-.3c.8.78,1.86,1.21,2.98,1.21s2.21-.44,3.02-1.25l4.17-4.17c.8-.8,1.25-1.88,1.25-3.02s-.44-2.21-1.25-3.02c-.8-.8-1.88-1.25-3.02-1.25s-2.21.44-3.02,1.25l-1.44,1.44v-1.07c0-2.35-1.91-4.27-4.27-4.27h0Z"/>
  </g>
  <path class="cls-1" d="M20.88,16.39h0c-.72.72-1.91.72-2.63,0l-4.17-4.17c-.72-.72-.72-1.91,0-2.63h0c.72-.72,1.91-.72,2.63,0l4.17,4.17c.72.72.72,1.91,0,2.63ZM27.35,16.39h0c.72.72,1.91.72,2.63,0l4.17-4.17c.72-.72.72-1.91,0-2.63h0c-.72-.72-1.91-.72-2.63,0l-4.17,4.17c-.72.72-.72,1.91,0,2.63ZM25.97,14.16v-5.89c0-1.02-.84-1.86-1.86-1.86h0c-1.02,0-1.86.84-1.86,1.86v5.89c0,1.02.84,1.86,1.86,1.86h0c1.02,0,1.86-.84,1.86-1.86Z"/>
  <g>
    <path class="cls-2" d="M9.59,21.25c0-1.29.36-2.29,1.09-2.98.73-.69,1.82-1.04,3.28-1.04s2.55.35,3.28,1.04c.73.69,1.09,1.69,1.09,2.98v.62h-2.8v-.78c0-.58-.13-.99-.39-1.22-.26-.24-.63-.35-1.09-.35s-.83.12-1.09.35c-.26.24-.39.64-.39,1.22,0,.55.14,1.03.43,1.45.29.42.65.82,1.08,1.19.43.37.89.75,1.39,1.12s.96.78,1.39,1.22c.43.44.79.94,1.08,1.51s.43,1.23.43,1.99c0,1.3-.37,2.29-1.12,2.98-.75.69-1.85,1.04-3.31,1.04s-2.56-.35-3.3-1.04c-.75-.69-1.12-1.69-1.12-2.98v-1.1h2.81v1.26c0,.58.14.98.42,1.21.28.23.65.34,1.12.34s.84-.12,1.12-.34c.28-.23.42-.63.42-1.21,0-.55-.14-1.03-.43-1.45-.29-.42-.65-.82-1.08-1.19-.43-.37-.89-.75-1.39-1.12s-.96-.78-1.39-1.22c-.43-.44-.79-.94-1.08-1.51s-.43-1.23-.43-1.99Z"/>
    <path class="cls-2" d="M24.03,26.73l2.27-9.33h2.73l-4.12,16h-2.02l-4.12-16h2.99l2.27,9.33Z"/>
    <path class="cls-2" d="M34.33,24.49h4.16v5.08c0,1.3-.37,2.29-1.12,2.98-.75.69-1.85,1.04-3.3,1.04s-2.56-.35-3.31-1.04c-.75-.69-1.12-1.69-1.12-2.98v-8.32c0-1.29.37-2.29,1.12-2.98.75-.69,1.85-1.04,3.31-1.04s2.56.35,3.3,1.04c.75.69,1.12,1.69,1.12,2.98v1.55h-2.81v-1.71c0-.58-.14-.99-.42-1.22-.28-.24-.65-.35-1.12-.35s-.84.12-1.12.35c-.28.24-.42.64-.42,1.22v8.64c0,.58.14.98.42,1.21.28.23.65.34,1.12.34s.84-.12,1.12-.34c.28-.23.42-.63.42-1.21v-2.95h-1.35v-2.29Z"/>
  </g>
</svg>