<?xml version="1.0" encoding="UTF-8"?>
<svg id="ss_virtual_bones" xmlns="http://www.w3.org/2000/svg" xmlns:xlink="http://www.w3.org/1999/xlink" viewBox="0 0 48 40">
  <defs>
    <style>
      .cls-1 {
        fill: #fff;
      }

      .cls-2 {
        opacity: .7;
      }

      .cls-3 {
        opacity: .5;
      }
    </style>
    <filter id="drop-shadow-1" x="-66.75" y="-195.73" width="46" height="33" filterUnits="userSpaceOnUse">
      <feOffset dx="0" dy="2.13"/>
      <feGaussianBlur result="blur" stdDeviation="1.06"/>
      <feFlood flood-color="#000" flood-opacity="1"/>
      <feComposite in2="blur" operator="in"/>
      <feComposite in="SourceGraphic"/>
    </filter>
  </defs>
  <path class="cls-1" d="M33.25,36l-6.01-6.81,6.01-25.19,6.01,25.19-6.01,6.81ZM29.08,28.73l4.18,4.74,4.18-4.74-4.18-17.53-4.18,17.53Z"/>
  <path class="cls-3" d="M33.25,36l-6.01-6.81,6.01-25.19,6.01,25.19-6.01,6.81ZM29.08,28.73l4.18,4.74,4.18-4.74-4.18-17.53-4.18,17.53Z"/>
  <path class="cls-1" d="M24,36l-6.01-6.81,6.01-25.19,6.01,25.19-6.01,6.81ZM19.82,28.73l4.18,4.74,4.18-4.74-4.18-17.53-4.18,17.53Z"/>
  <path class="cls-2" d="M24,36l-6.01-6.81,6.01-25.19,6.01,25.19-6.01,6.81ZM19.82,28.73l4.18,4.74,4.18-4.74-4.18-17.53-4.18,17.53Z"/>
  <g>
    <polygon points="14.75 7.6 9.65 28.96 14.75 34.74 19.84 28.96 14.75 7.6"/>
    <path class="cls-1" d="M14.75,36l-6.01-6.81L14.75,4l6.01,25.19-6.01,6.81ZM10.57,28.73l4.18,4.74,4.18-4.74-4.18-17.53-4.18,17.53Z"/>
  </g>
</svg>