<?xml version="1.0" encoding="UTF-8"?>
<svg id="Syn_MergeVectors" xmlns="http://www.w3.org/2000/svg" xmlns:xlink="http://www.w3.org/1999/xlink" viewBox="0 0 48 40">
  <defs>
    <style>
      .cls-1 {
        fill: none;
      }

      .cls-2 {
        fill: #fff;
      }
    </style>
    <filter id="drop-shadow-1" x="410.81" y="-330.19" width="46" height="33" filterUnits="userSpaceOnUse">
      <feOffset dx="0" dy="2.13"/>
      <feGaussianBlur result="blur" stdDeviation="1.06"/>
      <feFlood flood-color="#000" flood-opacity="1"/>
      <feComposite in2="blur" operator="in"/>
      <feComposite in="SourceGraphic"/>
    </filter>
  </defs>
  <path class="cls-2" d="M29.04,5.75v9.21h9.21v19.29h-19.29v-9.21h-9.21V5.75h19.29M30.79,4H8v22.79h9.21v9.21h22.79V13.21h-9.21V4h0Z"/>
  <g>
    <polygon class="cls-1" points="29.04 5.75 24.58 5.75 9.75 20.58 9.75 25.04 10.27 25.04 29.04 6.27 29.04 5.75"/>
    <polygon class="cls-1" points="29.04 8.75 12.75 25.04 17.72 25.04 29.04 13.72 29.04 8.75"/>
    <polygon class="cls-1" points="17.13 5.75 9.75 13.13 9.75 18.1 22.1 5.75 17.13 5.75"/>
    <polygon class="cls-1" points="9.75 5.75 9.75 10.65 14.65 5.75 9.75 5.75"/>
    <polygon class="cls-1" points="38.25 14.96 37.73 14.96 18.96 33.73 18.96 34.25 23.42 34.25 38.25 19.42 38.25 14.96"/>
    <polygon class="cls-1" points="38.25 21.9 25.9 34.25 30.87 34.25 38.25 26.87 38.25 21.9"/>
    <polygon class="cls-1" points="38.25 34.25 38.25 29.35 33.35 34.25 38.25 34.25"/>
    <polygon class="cls-1" points="30.28 14.96 18.96 26.28 18.96 31.25 35.25 14.96 30.28 14.96"/>
    <polygon class="cls-2" points="14.65 5.75 9.75 10.65 9.75 13.13 17.13 5.75 14.65 5.75"/>
    <polygon class="cls-2" points="22.1 5.75 9.75 18.1 9.75 20.58 24.58 5.75 22.1 5.75"/>
    <polygon class="cls-2" points="29.04 6.27 10.27 25.04 12.75 25.04 29.04 8.75 29.04 6.27"/>
    <polygon class="cls-2" points="29.04 14.96 29.04 13.72 17.72 25.04 18.96 25.04 18.96 26.28 30.28 14.96 29.04 14.96"/>
    <polygon class="cls-2" points="35.25 14.96 18.96 31.25 18.96 33.73 37.73 14.96 35.25 14.96"/>
    <polygon class="cls-2" points="38.25 19.42 23.42 34.25 25.9 34.25 38.25 21.9 38.25 19.42"/>
    <polygon class="cls-2" points="30.87 34.25 33.35 34.25 38.25 29.35 38.25 26.87 30.87 34.25"/>
    <polygon class="cls-2" points="38.25 26.87 40 25.12 40 20.14 38.25 21.9 38.25 26.87"/>
    <polygon class="cls-2" points="29.04 13.72 30.79 11.97 30.79 6.99 29.04 8.75 29.04 13.72"/>
    <polygon class="cls-2" points="18.96 26.28 17.21 28.03 17.21 33.01 18.96 31.25 18.96 26.28"/>
    <polygon class="cls-2" points="12.75 25.04 10.99 26.79 15.97 26.79 17.72 25.04 12.75 25.04"/>
    <polygon class="cls-2" points="22.1 5.75 23.86 4 18.88 4 17.13 5.75 22.1 5.75"/>
    <polygon class="cls-2" points="29.04 5.75 29.04 6.27 30.79 4.51 30.79 4 29.04 4 26.34 4 24.58 5.75 29.04 5.75"/>
    <polygon class="cls-2" points="9.75 5.75 14.65 5.75 16.4 4 9.75 4 8 4 8 5.75 8 12.4 9.75 10.65 9.75 5.75"/>
    <polygon class="cls-2" points="9.75 13.13 8 14.88 8 19.86 9.75 18.1 9.75 13.13"/>
    <polygon class="cls-2" points="35.25 14.96 37.01 13.21 32.03 13.21 30.28 14.96 35.25 14.96"/>
    <polygon class="cls-2" points="38.25 14.96 38.25 19.42 40 17.66 40 14.96 40 13.21 39.49 13.21 37.73 14.96 38.25 14.96"/>
    <polygon class="cls-2" points="9.75 25.04 9.75 20.58 8 22.34 8 25.04 8 26.79 8.51 26.79 10.27 25.04 9.75 25.04"/>
    <polygon class="cls-2" points="18.96 34.25 18.96 33.73 17.21 35.49 17.21 36 18.96 36 21.66 36 23.42 34.25 18.96 34.25"/>
    <polygon class="cls-2" points="25.9 34.25 24.14 36 29.12 36 30.87 34.25 25.9 34.25"/>
    <polygon class="cls-2" points="9.75 10.65 8 12.4 8 14.88 9.75 13.13 9.75 10.65"/>
    <polygon class="cls-2" points="17.13 5.75 18.88 4 16.4 4 14.65 5.75 17.13 5.75"/>
    <polygon class="cls-2" points="24.58 5.75 26.34 4 23.86 4 22.1 5.75 24.58 5.75"/>
    <polygon class="cls-2" points="9.75 18.1 8 19.86 8 22.34 9.75 20.58 9.75 18.1"/>
    <polygon class="cls-2" points="29.04 8.75 30.79 6.99 30.79 5.75 30.79 4.51 29.04 6.27 29.04 8.75"/>
    <polygon class="cls-2" points="10.27 25.04 8.51 26.79 9.75 26.79 10.99 26.79 12.75 25.04 10.27 25.04"/>
    <polygon class="cls-2" points="29.04 14.96 30.28 14.96 32.03 13.21 30.79 13.21 30.79 11.97 29.04 13.72 29.04 14.96"/>
    <polygon class="cls-2" points="18.96 25.04 17.72 25.04 15.97 26.79 17.21 26.79 17.21 28.03 18.96 26.28 18.96 25.04"/>
    <polygon class="cls-2" points="37.73 14.96 39.49 13.21 38.25 13.21 37.01 13.21 35.25 14.96 37.73 14.96"/>
    <polygon class="cls-2" points="18.96 31.25 17.21 33.01 17.21 34.25 17.21 35.49 18.96 33.73 18.96 31.25"/>
    <polygon class="cls-2" points="38.25 21.9 40 20.14 40 17.66 38.25 19.42 38.25 21.9"/>
    <polygon class="cls-2" points="23.42 34.25 21.66 36 24.14 36 25.9 34.25 23.42 34.25"/>
    <polygon class="cls-2" points="30.87 34.25 29.12 36 31.6 36 33.35 34.25 30.87 34.25"/>
    <polygon class="cls-2" points="38.25 29.35 40 27.6 40 25.12 38.25 26.87 38.25 29.35"/>
  </g>
</svg>