<?xml version="1.0" encoding="UTF-8"?>
<svg id="sz_remove_empty_actions" xmlns="http://www.w3.org/2000/svg" xmlns:xlink="http://www.w3.org/1999/xlink" viewBox="0 0 48 40">
  <defs>
    <style>
      .cls-1 {
        fill: #fff;
      }
    </style>
    <filter id="drop-shadow-1" x="410.81" y="-262.96" width="46" height="33" filterUnits="userSpaceOnUse">
      <feOffset dx="0" dy="2.13"/>
      <feGaussianBlur result="blur" stdDeviation="1.06"/>
      <feFlood flood-color="#000" flood-opacity="1"/>
      <feComposite in2="blur" operator="in"/>
      <feComposite in="SourceGraphic"/>
    </filter>
  </defs>
  <path class="cls-1" d="M44,33.33H14.26l-10.26-13.33L14.26,6.67h29.74v26.67ZM15.49,30.82h26V9.18H15.49l-8.32,10.82,8.32,10.82Z"/>
  <path class="cls-1" d="M30.67,25.9c-.32,0-.64-.12-.89-.37l-9.29-9.29c-.49-.49-.49-1.28,0-1.78s1.28-.49,1.78,0l9.29,9.29c.49.49.49,1.28,0,1.78-.25.25-.57.37-.89.37Z"/>
  <path class="cls-1" d="M21.38,25.9c-.32,0-.64-.12-.89-.37-.49-.49-.49-1.28,0-1.78l9.29-9.29c.49-.49,1.28-.49,1.78,0s.49,1.28,0,1.78l-9.29,9.29c-.25.25-.57.37-.89.37Z"/>
</svg>