<?xml version="1.0" encoding="UTF-8"?>
<svg id="sz_swap_view_mode" xmlns="http://www.w3.org/2000/svg" xmlns:xlink="http://www.w3.org/1999/xlink" viewBox="0 0 48 40">
  <defs>
    <style>
      .cls-1 {
        fill: #b200ff;
      }

      .cls-2 {
        fill: #9fec80;
      }

      .cls-3 {
        fill: #44dfff;
      }

      .cls-4 {
        fill: #00b00e;
      }
    </style>
    <filter id="drop-shadow-1" x="-203.19" y="-262.96" width="46" height="33" filterUnits="userSpaceOnUse">
      <feOffset dx="0" dy="2.13"/>
      <feGaussianBlur result="blur" stdDeviation="1.06"/>
      <feFlood flood-color="#000" flood-opacity="1"/>
      <feComposite in2="blur" operator="in"/>
      <feComposite in="SourceGraphic"/>
    </filter>
  </defs>
  <g>
    <path class="cls-1" d="M22.42,4.82s-.04,0-.06,0c-8.38,0-15.18,6.8-15.18,15.18s6.8,15.18,15.18,15.18c.02,0,.04,0,.06,0V4.82Z"/>
    <path class="cls-3" d="M22.35,36c-8.82,0-16-7.18-16-16S13.53,4,22.35,4v1.64c-7.92,0-14.36,6.44-14.36,14.36s6.44,14.36,14.36,14.36v1.64Z"/>
  </g>
  <g>
    <polygon class="cls-4" points="31.96 24.12 26.93 19.59 26.93 21.88 17.91 21.88 17.91 19.59 12.88 24.12 17.91 28.66 17.91 26.41 26.93 26.41 26.93 28.66 31.96 24.12"/>
    <path d="M26.93,29.37c-.1,0-.2-.02-.29-.06-.26-.11-.42-.37-.42-.65v-1.53h-7.6v1.53c0,.28-.17.53-.42.65-.26.12-.56.07-.76-.12l-5.03-4.53c-.15-.14-.24-.33-.24-.53s.09-.39.24-.53l5.03-4.53c.21-.19.51-.23.76-.12s.42.37.42.65v1.58h7.6v-1.58c0-.28.17-.53.42-.65.26-.11.56-.07.76.12l5.03,4.53c.15.14.24.33.24.53s-.09.39-.24.53l-5.03,4.53c-.13.12-.3.18-.48.18ZM17.91,25.7h9.02c.39,0,.71.32.71.71v.65l3.26-2.94-3.26-2.94v.69c0,.39-.32.71-.71.71h-9.02c-.39,0-.71-.32-.71-.71v-.69l-3.26,2.94,3.26,2.94v-.65c0-.39.32-.71.71-.71Z"/>
  </g>
  <path class="cls-2" d="M22.35,36v-1.64c6.42,0,12.1-4.36,13.82-10.48-1.6-.56-2.75-2.09-2.75-3.88s1.15-3.32,2.75-3.88c-1.72-6.12-7.4-10.48-13.82-10.48v-1.64c7.23,0,13.62,4.96,15.46,11.9,2.14.14,3.83,1.93,3.83,4.1s-1.7,3.96-3.83,4.1c-1.84,6.93-8.23,11.9-15.46,11.9ZM37.53,17.53c-1.36,0-2.47,1.11-2.47,2.47s1.11,2.47,2.47,2.47,2.47-1.11,2.47-2.47-1.11-2.47-2.47-2.47Z"/>
</svg>